<?xml version="1.0" encoding="UTF-8"?>
<svg version="1.1" xmlns="http://www.w3.org/2000/svg" width="3840" height="3840">
  <style>
    path { fill: black; }
    @media (prefers-color-scheme: dark) {
      path { fill: white; }
    }
  </style>
<path d="M0 0 C1.98 0 3.96 0 6 0 C6.32871094 0.62003906 6.65742187 1.24007812 6.99609375 1.87890625 C10.02164229 7.51183809 13.18688374 13.03328866 16.5 18.5 C19.63434016 23.67587932 22.62813126 28.89699733 25.49609375 34.2265625 C30.9392526 44.2645957 36.81192129 54.04087135 42.71069336 63.81494141 C45.77727344 68.91241767 48.71662732 74.0486478 51.51171875 79.30078125 C53.41732601 82.75688261 55.45504408 86.12502556 57.5 89.5 C60.63428568 94.67590837 63.62813079 99.89699645 66.49609375 105.2265625 C71.9392526 115.2645957 77.81192129 125.04087135 83.71069336 134.81494141 C86.77727344 139.91241767 89.71662732 145.0486478 92.51171875 150.30078125 C94.78457835 154.42294918 97.24507108 158.42914739 99.68432617 162.4543457 C102.39437961 166.94370987 104.92977218 171.50224139 107.40625 176.125 C109.35290886 179.6366199 111.41948646 183.06653026 113.5 186.5 C116.63429928 191.67590112 119.62813091 196.89699667 122.49609375 202.2265625 C127.9392526 212.2645957 133.81192129 222.04087135 139.71069336 231.81494141 C142.77727344 236.91241767 145.71662732 242.0486478 148.51171875 247.30078125 C150.41732601 250.75688261 152.45504408 254.12502556 154.5 257.5 C157.63428568 262.67590837 160.62813079 267.89699645 163.49609375 273.2265625 C168.9392526 283.2645957 174.81192129 293.04087135 180.71069336 302.81494141 C183.77727344 307.91241767 186.71662732 313.0486478 189.51171875 318.30078125 C191.41732601 321.75688261 193.45504408 325.12502556 195.5 328.5 C198.63428568 333.67590837 201.62813079 338.89699645 204.49609375 344.2265625 C209.9392526 354.2645957 215.81192129 364.04087135 221.71069336 373.81494141 C224.77727344 378.91241767 227.71662732 384.0486478 230.51171875 389.30078125 C232.78457835 393.42294918 235.24507108 397.42914739 237.68432617 401.4543457 C240.39437961 405.94370987 242.92977218 410.50224139 245.40625 415.125 C247.35290886 418.6366199 249.41948646 422.06653026 251.5 425.5 C254.63429928 430.67590112 257.62813091 435.89699667 260.49609375 441.2265625 C265.9392526 451.2645957 271.81192129 461.04087135 277.71069336 470.81494141 C280.77727344 475.91241767 283.71662732 481.0486478 286.51171875 486.30078125 C288.78457835 490.42294918 291.24507108 494.42914739 293.68432617 498.4543457 C296.39437961 502.94370987 298.92977218 507.50224139 301.40625 512.125 C303.35290519 515.63661329 305.41936522 519.06660927 307.5 522.5 C310.61413719 527.63884025 313.56819325 532.82729406 316.40625 538.125 C318.35290886 541.6366199 320.41948646 545.06653026 322.5 548.5 C325.63429928 553.67590112 328.62813091 558.89699667 331.49609375 564.2265625 C336.9392526 574.2645957 342.81192129 584.04087135 348.71069336 593.81494141 C351.77727344 598.91241767 354.71662732 604.0486478 357.51171875 609.30078125 C359.78457835 613.42294918 362.24507108 617.42914739 364.68432617 621.4543457 C367.39437961 625.94370987 369.92977218 630.50224139 372.40625 635.125 C374.35290886 638.6366199 376.41948646 642.06653026 378.5 645.5 C381.63429928 650.67590112 384.62813091 655.89699667 387.49609375 661.2265625 C392.9392526 671.2645957 398.81192129 681.04087135 404.71069336 690.81494141 C407.77727344 695.91241767 410.71662732 701.0486478 413.51171875 706.30078125 C415.41732601 709.75688261 417.45504408 713.12502556 419.5 716.5 C422.63428568 721.67590837 425.62813079 726.89699645 428.49609375 732.2265625 C433.9392526 742.2645957 439.81192129 752.04087135 445.71069336 761.81494141 C448.77727344 766.91241767 451.71662732 772.0486478 454.51171875 777.30078125 C456.78457835 781.42294918 459.24507108 785.42914739 461.68432617 789.4543457 C464.39437961 793.94370987 466.92977218 798.50224139 469.40625 803.125 C471.35290886 806.6366199 473.41948646 810.06653026 475.5 813.5 C478.63429928 818.67590112 481.62813091 823.89699667 484.49609375 829.2265625 C489.9392526 839.2645957 495.81192129 849.04087135 501.71069336 858.81494141 C504.77727344 863.91241767 507.71662732 869.0486478 510.51171875 874.30078125 C512.41732601 877.75688261 514.45504408 881.12502556 516.5 884.5 C519.63428568 889.67590837 522.62813079 894.89699645 525.49609375 900.2265625 C530.9392526 910.2645957 536.81192129 920.04087135 542.71069336 929.81494141 C545.77727344 934.91241767 548.71662732 940.0486478 551.51171875 945.30078125 C553.41732601 948.75688261 555.45504408 952.12502556 557.5 955.5 C560.63428568 960.67590837 563.62813079 965.89699645 566.49609375 971.2265625 C571.9392526 981.2645957 577.81192129 991.04087135 583.71069336 1000.81494141 C586.77727344 1005.91241767 589.71662732 1011.0486478 592.51171875 1016.30078125 C594.78457835 1020.42294918 597.24507108 1024.42914739 599.68432617 1028.4543457 C602.39437961 1032.94370987 604.92977218 1037.50224139 607.40625 1042.125 C609.35290886 1045.6366199 611.41948646 1049.06653026 613.5 1052.5 C616.63429928 1057.67590112 619.62813091 1062.89699667 622.49609375 1068.2265625 C627.9392526 1078.2645957 633.81192129 1088.04087135 639.71069336 1097.81494141 C642.77727344 1102.91241767 645.71662732 1108.0486478 648.51171875 1113.30078125 C650.78457835 1117.42294918 653.24507108 1121.42914739 655.68432617 1125.4543457 C658.39437961 1129.94370987 660.92977218 1134.50224139 663.40625 1139.125 C665.35290886 1142.6366199 667.41948646 1146.06653026 669.5 1149.5 C672.63429928 1154.67590112 675.62813091 1159.89699667 678.49609375 1165.2265625 C683.9392526 1175.2645957 689.81192129 1185.04087135 695.71069336 1194.81494141 C698.77727344 1199.91241767 701.71662732 1205.0486478 704.51171875 1210.30078125 C706.78457835 1214.42294918 709.24507108 1218.42914739 711.68432617 1222.4543457 C714.39437961 1226.94370987 716.92977218 1231.50224139 719.40625 1236.125 C721.35290886 1239.6366199 723.41948646 1243.06653026 725.5 1246.5 C728.63429928 1251.67590112 731.62813091 1256.89699667 734.49609375 1262.2265625 C739.9392526 1272.2645957 745.81192129 1282.04087135 751.71069336 1291.81494141 C754.77727344 1296.91241767 757.71662732 1302.0486478 760.51171875 1307.30078125 C762.78457835 1311.42294918 765.24507108 1315.42914739 767.68432617 1319.4543457 C770.39437961 1323.94370987 772.92977218 1328.50224139 775.40625 1333.125 C777.35290886 1336.6366199 779.41948646 1340.06653026 781.5 1343.5 C784.63429928 1348.67590112 787.62813091 1353.89699667 790.49609375 1359.2265625 C795.9392526 1369.2645957 801.81192129 1379.04087135 807.71069336 1388.81494141 C810.77727344 1393.91241767 813.71662732 1399.0486478 816.51171875 1404.30078125 C818.78457835 1408.42294918 821.24507108 1412.42914739 823.68432617 1416.4543457 C826.39437961 1420.94370987 828.92977218 1425.50224139 831.40625 1430.125 C833.35290886 1433.6366199 835.41948646 1437.06653026 837.5 1440.5 C840.63429928 1445.67590112 843.62813091 1450.89699667 846.49609375 1456.2265625 C851.9392526 1466.2645957 857.81192129 1476.04087135 863.71069336 1485.81494141 C866.77727344 1490.91241767 869.71662732 1496.0486478 872.51171875 1501.30078125 C874.41732601 1504.75688261 876.45504408 1508.12502556 878.5 1511.5 C881.63428568 1516.67590837 884.62813079 1521.89699645 887.49609375 1527.2265625 C892.9392526 1537.2645957 898.81192129 1547.04087135 904.71069336 1556.81494141 C907.77727344 1561.91241767 910.71662732 1567.0486478 913.51171875 1572.30078125 C915.41732601 1575.75688261 917.45504408 1579.12502556 919.5 1582.5 C922.63428568 1587.67590837 925.62813079 1592.89699645 928.49609375 1598.2265625 C933.9392526 1608.2645957 939.81192129 1618.04087135 945.71069336 1627.81494141 C948.77727344 1632.91241767 951.71662732 1638.0486478 954.51171875 1643.30078125 C956.78457835 1647.42294918 959.24507108 1651.42914739 961.68432617 1655.4543457 C964.39437961 1659.94370987 966.92977218 1664.50224139 969.40625 1669.125 C971.35290886 1672.6366199 973.41948646 1676.06653026 975.5 1679.5 C978.63429928 1684.67590112 981.62813091 1689.89699667 984.49609375 1695.2265625 C989.9392526 1705.2645957 995.81192129 1715.04087135 1001.71069336 1724.81494141 C1004.77727344 1729.91241767 1007.71662732 1735.0486478 1010.51171875 1740.30078125 C1012.78457835 1744.42294918 1015.24507108 1748.42914739 1017.68432617 1752.4543457 C1020.39437961 1756.94370987 1022.92977218 1761.50224139 1025.40625 1766.125 C1027.35290519 1769.63661329 1029.41936522 1773.06660927 1031.5 1776.5 C1034.61413719 1781.63884025 1037.56819325 1786.82729406 1040.40625 1792.125 C1042.35290886 1795.6366199 1044.41948646 1799.06653026 1046.5 1802.5 C1049.63429928 1807.67590112 1052.62813091 1812.89699667 1055.49609375 1818.2265625 C1060.93637495 1828.25928887 1066.78679073 1838.04926932 1072.69970703 1847.80834961 C1074.14428982 1850.19909329 1075.57393208 1852.59817538 1077 1855 C1077.48678223 1855.80228027 1077.97356445 1856.60456055 1078.47509766 1857.43115234 C1078.93319824 1858.21055176 1079.39129883 1858.98995117 1079.86328125 1859.79296875 C1080.27489502 1860.48285889 1080.68650879 1861.17274902 1081.1105957 1861.88354492 C1082.17176136 1864.40872886 1082.23136709 1866.28611881 1082 1869 C1080.02375233 1870.97624767 1076.12137737 1870.15550614 1073.41857815 1870.15936089 C1072.61109008 1870.16440948 1071.80360201 1870.16945808 1070.97164461 1870.17465967 C1068.23072765 1870.19050097 1065.48983462 1870.19909904 1062.74888611 1870.20773315 C1060.77794323 1870.21746658 1058.80700232 1870.2276053 1056.83606344 1870.23811734 C1051.39242786 1870.2657324 1045.94878343 1870.2867868 1040.50511467 1870.30663323 C1035.84270958 1870.32439603 1031.18032402 1870.34582336 1026.5179342 1870.36717294 C983.05115207 1870.56517078 939.58387376 1870.66942586 896.11673025 1870.75161848 C889.64886435 1870.76388914 883.18099939 1870.77663188 876.71313477 1870.78955078 C875.64108373 1870.79167625 875.64108373 1870.79167625 874.5473751 1870.79384466 C851.3773769 1870.84009631 828.20782838 1870.93113249 805.0380788 1871.04639695 C781.2266142 1871.16463842 757.41539424 1871.24051567 733.60363582 1871.26198688 C730.24084365 1871.26503258 726.87805211 1871.26854836 723.5152607 1871.27234268 C722.8534175 1871.27307268 722.1915743 1871.27380268 721.50967525 1871.2745548 C711.51413522 1871.28672156 701.51939398 1871.33623641 691.52412224 1871.405056 C680.15357675 1871.48333104 668.78397897 1871.51801313 657.41316783 1871.4950311 C651.60898164 1871.48469881 645.8068552 1871.4956401 640.00300789 1871.56312943 C634.69017682 1871.62443532 629.3808311 1871.62588093 624.0678801 1871.57947291 C622.14510799 1871.5732768 620.22211348 1871.58914444 618.29974782 1871.62916015 C604.30576132 1871.90321789 604.30576132 1871.90321789 600.46868403 1868.73602358 C597.47324203 1865.21990582 595.75283221 1861.25809377 594 1857 C593.04047536 1855.19773774 592.06493985 1853.40374989 591.0625 1851.625 C590.35287109 1850.29855469 590.35287109 1850.29855469 589.62890625 1848.9453125 C587.67284001 1845.40844453 585.59502386 1841.95577194 583.5 1838.5 C580.3857642 1833.3612218 577.43180362 1828.17270009 574.59375 1822.875 C572.64709114 1819.3633801 570.58051354 1815.93346974 568.5 1812.5 C565.36570072 1807.32409888 562.37186909 1802.10300333 559.50390625 1796.7734375 C554.0607474 1786.7354043 548.18807871 1776.95912865 542.28930664 1767.18505859 C539.22272656 1762.08758233 536.28337268 1756.9513522 533.48828125 1751.69921875 C531.21542165 1747.57705082 528.75492892 1743.57085261 526.31567383 1739.5456543 C523.60562039 1735.05629013 521.07022782 1730.49775861 518.59375 1725.875 C516.64709114 1722.3633801 514.58051354 1718.93346974 512.5 1715.5 C509.36570072 1710.32409888 506.37186909 1705.10300333 503.50390625 1699.7734375 C498.0607474 1689.7354043 492.18807871 1679.95912865 486.28930664 1670.18505859 C483.22272656 1665.08758233 480.28337268 1659.9513522 477.48828125 1654.69921875 C475.21542165 1650.57705082 472.75492892 1646.57085261 470.31567383 1642.5456543 C467.60562039 1638.05629013 465.07022782 1633.49775861 462.59375 1628.875 C460.64709114 1625.3633801 458.58051354 1621.93346974 456.5 1618.5 C453.36570072 1613.32409888 450.37186909 1608.10300333 447.50390625 1602.7734375 C442.0607474 1592.7354043 436.18807871 1582.95912865 430.28930664 1573.18505859 C427.22272656 1568.08758233 424.28337268 1562.9513522 421.48828125 1557.69921875 C419.21542165 1553.57705082 416.75492892 1549.57085261 414.31567383 1545.5456543 C411.60562039 1541.05629013 409.07022782 1536.49775861 406.59375 1531.875 C404.64709114 1528.3633801 402.58051354 1524.93346974 400.5 1521.5 C397.36570072 1516.32409888 394.37186909 1511.10300333 391.50390625 1505.7734375 C386.0607474 1495.7354043 380.18807871 1485.95912865 374.28930664 1476.18505859 C371.22272656 1471.08758233 368.28337268 1465.9513522 365.48828125 1460.69921875 C363.58267399 1457.24311739 361.54495592 1453.87497444 359.5 1450.5 C356.36571432 1445.32409163 353.37186921 1440.10300355 350.50390625 1434.7734375 C345.0607474 1424.7354043 339.18807871 1414.95912865 333.28930664 1405.18505859 C330.22272656 1400.08758233 327.28337268 1394.9513522 324.48828125 1389.69921875 C322.21542165 1385.57705082 319.75492892 1381.57085261 317.31567383 1377.5456543 C314.60562039 1373.05629013 312.07022782 1368.49775861 309.59375 1363.875 C307.64709114 1360.3633801 305.58051354 1356.93346974 303.5 1353.5 C300.36570072 1348.32409888 297.37186909 1343.10300333 294.50390625 1337.7734375 C289.0607474 1327.7354043 283.18807871 1317.95912865 277.28930664 1308.18505859 C274.22272656 1303.08758233 271.28337268 1297.9513522 268.48828125 1292.69921875 C266.21542165 1288.57705082 263.75492892 1284.57085261 261.31567383 1280.5456543 C258.60562039 1276.05629013 256.07022782 1271.49775861 253.59375 1266.875 C251.64709114 1263.3633801 249.58051354 1259.93346974 247.5 1256.5 C244.36570072 1251.32409888 241.37186909 1246.10300333 238.50390625 1240.7734375 C233.0607474 1230.7354043 227.18807871 1220.95912865 221.28930664 1211.18505859 C218.22272656 1206.08758233 215.28337268 1200.9513522 212.48828125 1195.69921875 C210.21542165 1191.57705082 207.75492892 1187.57085261 205.31567383 1183.5456543 C202.60562039 1179.05629013 200.07022782 1174.49775861 197.59375 1169.875 C195.64709114 1166.3633801 193.58051354 1162.93346974 191.5 1159.5 C188.36570072 1154.32409888 185.37186909 1149.10300333 182.50390625 1143.7734375 C177.0607474 1133.7354043 171.18807871 1123.95912865 165.28930664 1114.18505859 C162.22272656 1109.08758233 159.28337268 1103.9513522 156.48828125 1098.69921875 C154.21542165 1094.57705082 151.75492892 1090.57085261 149.31567383 1086.5456543 C146.60562039 1082.05629013 144.07022782 1077.49775861 141.59375 1072.875 C139.64709114 1069.3633801 137.58051354 1065.93346974 135.5 1062.5 C132.36570072 1057.32409888 129.37186909 1052.10300333 126.50390625 1046.7734375 C121.0607474 1036.7354043 115.18807871 1026.95912865 109.28930664 1017.18505859 C106.22272656 1012.08758233 103.28337268 1006.9513522 100.48828125 1001.69921875 C98.58267399 998.24311739 96.54495592 994.87497444 94.5 991.5 C91.36571432 986.32409163 88.37186921 981.10300355 85.50390625 975.7734375 C80.0607474 965.7354043 74.18807871 955.95912865 68.28930664 946.18505859 C65.22272656 941.08758233 62.28337268 935.9513522 59.48828125 930.69921875 C57.21542165 926.57705082 54.75492892 922.57085261 52.31567383 918.5456543 C49.60562039 914.05629013 47.07022782 909.49775861 44.59375 904.875 C42.64709114 901.3633801 40.58051354 897.93346974 38.5 894.5 C35.36570072 889.32409888 32.37186909 884.10300333 29.50390625 878.7734375 C24.013127 868.64758487 18.10526696 858.76978677 12.12451172 848.92797852 C5 837.15160724 5 837.15160724 5 834 C3.68 834 2.36 834 1 834 C0.87254395 834.58773193 0.74508789 835.17546387 0.61376953 835.78100586 C-0.36763702 839.32913797 -2.30553869 842.38803352 -4.125 845.5625 C-4.52952393 846.27559326 -4.93404785 846.98868652 -5.35083008 847.72338867 C-8.213331 852.73036812 -11.25141637 857.5990867 -14.390625 862.4375 C-16.56606717 865.90131084 -18.49029787 869.47811498 -20.421875 873.08203125 C-25.66828519 882.78269563 -31.3151306 892.27299055 -36.85107422 901.81030273 C-40.26516316 907.70289464 -43.61328107 913.62997004 -46.93725586 919.57373047 C-49.34776315 923.87273129 -51.84714827 928.10625741 -54.41015625 932.31640625 C-56.48593617 935.82024116 -58.45706663 939.37916038 -60.4375 942.9375 C-63.57447136 948.56754152 -66.88163216 954.02914406 -70.390625 959.4375 C-72.56606717 962.90131084 -74.49029787 966.47811498 -76.421875 970.08203125 C-81.66868552 979.78343586 -87.31419736 989.27600818 -92.85327148 998.8125 C-95.86885937 1004.01463739 -98.82522047 1009.2463932 -101.75 1014.5 C-104.78230734 1019.94121816 -107.99910358 1025.21020093 -111.390625 1030.4375 C-113.56606717 1033.90131084 -115.49029787 1037.47811498 -117.421875 1041.08203125 C-122.66828519 1050.78269563 -128.3151306 1060.27299055 -133.85107422 1069.81030273 C-137.26516316 1075.70289464 -140.61328107 1081.62997004 -143.93725586 1087.57373047 C-146.34776315 1091.87273129 -148.84714827 1096.10625741 -151.41015625 1100.31640625 C-153.48593617 1103.82024116 -155.45706663 1107.37916038 -157.4375 1110.9375 C-160.57447136 1116.56754152 -163.88163216 1122.02914406 -167.390625 1127.4375 C-169.56606717 1130.90131084 -171.49029787 1134.47811498 -173.421875 1138.08203125 C-178.66868552 1147.78343586 -184.31419736 1157.27600818 -189.85327148 1166.8125 C-192.86885937 1172.01463739 -195.82522047 1177.2463932 -198.75 1182.5 C-201.78230734 1187.94121816 -204.99910358 1193.21020093 -208.390625 1198.4375 C-210.56606717 1201.90131084 -212.49029787 1205.47811498 -214.421875 1209.08203125 C-219.66868552 1218.78343586 -225.31419736 1228.27600818 -230.85327148 1237.8125 C-233.86885937 1243.01463739 -236.82522047 1248.2463932 -239.75 1253.5 C-242.78230734 1258.94121816 -245.99910358 1264.21020093 -249.390625 1269.4375 C-251.56361406 1272.89740492 -253.48621404 1276.46962198 -255.4140625 1280.0703125 C-257.4874733 1283.90050487 -259.65487364 1287.67406698 -261.82568359 1291.44970703 C-263.65922786 1294.64303613 -265.47603431 1297.84429589 -267.265625 1301.0625 C-271.12181466 1307.9924878 -275.07185283 1314.78104381 -279.390625 1321.4375 C-281.56606717 1324.90131084 -283.49029787 1328.47811498 -285.421875 1332.08203125 C-290.66868552 1341.78343586 -296.31419736 1351.27600818 -301.85327148 1360.8125 C-304.86885937 1366.01463739 -307.82522047 1371.2463932 -310.75 1376.5 C-313.78230734 1381.94121816 -316.99910358 1387.21020093 -320.390625 1392.4375 C-322.56361406 1395.89740492 -324.48621404 1399.46962198 -326.4140625 1403.0703125 C-328.4874733 1406.90050487 -330.65487364 1410.67406698 -332.82568359 1414.44970703 C-334.65922786 1417.64303613 -336.47603431 1420.84429589 -338.265625 1424.0625 C-342.12181466 1430.9924878 -346.07185283 1437.78104381 -350.390625 1444.4375 C-352.56606717 1447.90131084 -354.49029787 1451.47811498 -356.421875 1455.08203125 C-361.66868552 1464.78343586 -367.31419736 1474.27600818 -372.85327148 1483.8125 C-375.86885937 1489.01463739 -378.82522047 1494.2463932 -381.75 1499.5 C-384.78230734 1504.94121816 -387.99910358 1510.21020093 -391.390625 1515.4375 C-393.56606717 1518.90131084 -395.49029787 1522.47811498 -397.421875 1526.08203125 C-402.66868552 1535.78343586 -408.31419736 1545.27600818 -413.85327148 1554.8125 C-416.86885937 1560.01463739 -419.82522047 1565.2463932 -422.75 1570.5 C-425.78230734 1575.94121816 -428.99910358 1581.21020093 -432.390625 1586.4375 C-434.56606717 1589.90131084 -436.49029787 1593.47811498 -438.421875 1597.08203125 C-443.66868552 1606.78343586 -449.31419736 1616.27600818 -454.85327148 1625.8125 C-457.86885937 1631.01463739 -460.82522047 1636.2463932 -463.75 1641.5 C-466.78230734 1646.94121816 -469.99910358 1652.21020093 -473.390625 1657.4375 C-475.56606717 1660.90131084 -477.49029787 1664.47811498 -479.421875 1668.08203125 C-484.66868552 1677.78343586 -490.31419736 1687.27600818 -495.85327148 1696.8125 C-498.86885937 1702.01463739 -501.82522047 1707.2463932 -504.75 1712.5 C-507.78230734 1717.94121816 -510.99910358 1723.21020093 -514.390625 1728.4375 C-516.56361406 1731.89740492 -518.48621404 1735.46962198 -520.4140625 1739.0703125 C-522.4874733 1742.90050487 -524.65487364 1746.67406698 -526.82568359 1750.44970703 C-528.65922786 1753.64303613 -530.47603431 1756.84429589 -532.265625 1760.0625 C-536.12181466 1766.9924878 -540.07185283 1773.78104381 -544.390625 1780.4375 C-546.56606717 1783.90131084 -548.49029787 1787.47811498 -550.421875 1791.08203125 C-555.66828519 1800.78269563 -561.3151306 1810.27299055 -566.85107422 1819.81030273 C-570.26516316 1825.70289464 -573.61328107 1831.62997004 -576.93725586 1837.57373047 C-579.34776315 1841.87273129 -581.84714827 1846.10625741 -584.41015625 1850.31640625 C-586.48593617 1853.82024116 -588.45706663 1857.37916038 -590.4375 1860.9375 C-593.57447136 1866.56754152 -596.88163216 1872.02914406 -600.390625 1877.4375 C-602.56606717 1880.90131084 -604.49029787 1884.47811498 -606.421875 1888.08203125 C-611.66868552 1897.78343586 -617.31419736 1907.27600818 -622.85327148 1916.8125 C-625.86885937 1922.01463739 -628.82522047 1927.2463932 -631.75 1932.5 C-634.78230734 1937.94121816 -637.99910358 1943.21020093 -641.390625 1948.4375 C-643.56606717 1951.90131084 -645.49029787 1955.47811498 -647.421875 1959.08203125 C-652.66868552 1968.78343586 -658.31419736 1978.27600818 -663.85327148 1987.8125 C-666.86885937 1993.01463739 -669.82522047 1998.2463932 -672.75 2003.5 C-675.78230734 2008.94121816 -678.99910358 2014.21020093 -682.390625 2019.4375 C-684.56606717 2022.90131084 -686.49029787 2026.47811498 -688.421875 2030.08203125 C-693.66868552 2039.78343586 -699.31419736 2049.27600818 -704.85327148 2058.8125 C-707.86885937 2064.01463739 -710.82522047 2069.2463932 -713.75 2074.5 C-716.78230734 2079.94121816 -719.99910358 2085.21020093 -723.390625 2090.4375 C-725.56606717 2093.90131084 -727.49029787 2097.47811498 -729.421875 2101.08203125 C-734.66828519 2110.78269563 -740.3151306 2120.27299055 -745.85107422 2129.81030273 C-749.26516316 2135.70289464 -752.61328107 2141.62997004 -755.93725586 2147.57373047 C-758.34776315 2151.87273129 -760.84714827 2156.10625741 -763.41015625 2160.31640625 C-765.48593617 2163.82024116 -767.45706663 2167.37916038 -769.4375 2170.9375 C-772.57447136 2176.56754152 -775.88163216 2182.02914406 -779.390625 2187.4375 C-781.56606717 2190.90131084 -783.49029787 2194.47811498 -785.421875 2198.08203125 C-790.66828519 2207.78269563 -796.3151306 2217.27299055 -801.85107422 2226.81030273 C-805.26516316 2232.70289464 -808.61328107 2238.62997004 -811.93725586 2244.57373047 C-814.34404553 2248.86610112 -816.83915112 2253.09335435 -819.3984375 2257.296875 C-821.93619205 2261.5801095 -824.3460924 2265.93557553 -826.75390625 2270.29296875 C-827.29724609 2271.26943359 -827.29724609 2271.26943359 -827.8515625 2272.265625 C-828.16947754 2272.84086914 -828.48739258 2273.41611328 -828.81494141 2274.00878906 C-830.44120362 2276.74133843 -832.2307643 2279.35841159 -834 2282 C-832.17337893 2282.00081715 -832.17337893 2282.00081715 -830.30985641 2282.00165081 C-801.41552558 2282.01568909 -772.52130663 2282.05541477 -743.62706326 2282.12685562 C-740.07217673 2282.13562258 -736.51728972 2282.14417235 -732.96240234 2282.15258789 C-732.25467588 2282.15426695 -731.54694943 2282.15594602 -730.81777671 2282.15767596 C-719.35208693 2282.18435985 -707.88644713 2282.19344203 -696.42072949 2282.19604143 C-684.65947107 2282.1990988 -672.8983574 2282.2210203 -661.13716435 2282.26052457 C-654.52949095 2282.28189688 -647.92206226 2282.29443335 -641.31435394 2282.28615379 C-635.09923086 2282.27864062 -628.88460474 2282.2943255 -622.66957283 2282.32806015 C-620.38466163 2282.33632639 -618.09970132 2282.33600489 -615.81479454 2282.32659721 C-612.7020889 2282.31504672 -609.59103146 2282.33398517 -606.47845459 2282.36076355 C-605.11269952 2282.34475366 -605.11269952 2282.34475366 -603.71935344 2282.32842034 C-597.60018822 2282.42707708 -597.60018822 2282.42707708 -594.49646378 2285.38980579 C-593.75571421 2286.68185193 -593.75571421 2286.68185193 -593 2288 C-592.53078125 2288.79277344 -592.0615625 2289.58554688 -591.578125 2290.40234375 C-591.13984375 2291.23894531 -590.7015625 2292.07554687 -590.25 2292.9375 C-584.27791203 2304.10916704 -577.83312158 2314.97205667 -571.28930664 2325.81494141 C-568.22272656 2330.91241767 -565.28337268 2336.0486478 -562.48828125 2341.30078125 C-560.21542165 2345.42294918 -557.75492892 2349.42914739 -555.31567383 2353.4543457 C-552.60562039 2357.94370987 -550.07022782 2362.50224139 -547.59375 2367.125 C-545.64709481 2370.63661329 -543.58063478 2374.06660927 -541.5 2377.5 C-538.38586281 2382.63884025 -535.43180675 2387.82729406 -532.59375 2393.125 C-530.64709114 2396.6366199 -528.58051354 2400.06653026 -526.5 2403.5 C-523.36570072 2408.67590112 -520.37186909 2413.89699667 -517.50390625 2419.2265625 C-512.0607474 2429.2645957 -506.18807871 2439.04087135 -500.28930664 2448.81494141 C-497.22272656 2453.91241767 -494.28337268 2459.0486478 -491.48828125 2464.30078125 C-489.21542165 2468.42294918 -486.75492892 2472.42914739 -484.31567383 2476.4543457 C-481.60562039 2480.94370987 -479.07022782 2485.50224139 -476.59375 2490.125 C-474.64709481 2493.63661329 -472.58063478 2497.06660927 -470.5 2500.5 C-467.38586281 2505.63884025 -464.43180675 2510.82729406 -461.59375 2516.125 C-459.64709114 2519.6366199 -457.58051354 2523.06653026 -455.5 2526.5 C-452.36570072 2531.67590112 -449.37186909 2536.89699667 -446.50390625 2542.2265625 C-441.0607474 2552.2645957 -435.18807871 2562.04087135 -429.28930664 2571.81494141 C-426.22272656 2576.91241767 -423.28337268 2582.0486478 -420.48828125 2587.30078125 C-418.58267399 2590.75688261 -416.54495592 2594.12502556 -414.5 2597.5 C-411.36571432 2602.67590837 -408.37186921 2607.89699645 -405.50390625 2613.2265625 C-400.0607474 2623.2645957 -394.18807871 2633.04087135 -388.28930664 2642.81494141 C-385.22272656 2647.91241767 -382.28337268 2653.0486478 -379.48828125 2658.30078125 C-377.21827521 2662.41777383 -374.7614649 2666.41930338 -372.32446289 2670.43896484 C-369.52372859 2675.07699508 -366.89350363 2679.78464679 -364.3515625 2684.5703125 C-363.05037296 2686.90944515 -361.62241692 2689.09565373 -360.125 2691.3125 C-357.98819753 2694.6235198 -357.50053661 2697.0042929 -358 2701 C-361.13076261 2702.56538131 -364.46540504 2702.13585717 -367.9020586 2702.12534916 C-368.73351254 2702.12675148 -369.56496647 2702.1281538 -370.42161598 2702.12959861 C-373.24364524 2702.13311391 -376.06562097 2702.12942376 -378.88764954 2702.12584114 C-380.92565654 2702.12688305 -382.96366336 2702.12836339 -385.00166976 2702.13024551 C-390.65096655 2702.1341698 -396.30024644 2702.13179387 -401.94954298 2702.12846755 C-408.07697812 2702.1259463 -414.20441053 2702.12918459 -420.33184528 2702.13171089 C-431.08714448 2702.13533525 -441.84243725 2702.13523888 -452.59773636 2702.13266373 C-464.1428092 2702.12991627 -475.6878791 2702.12932907 -487.23295212 2702.13140106 C-488.3251408 2702.13159482 -488.3251408 2702.13159482 -489.43939389 2702.13179249 C-492.40474308 2702.13232574 -495.37009226 2702.13287445 -498.33544144 2702.13344277 C-525.98171534 2702.13873761 -553.62798728 2702.13908838 -581.27426147 2702.13629532 C-582.50412635 2702.13617113 -582.50412635 2702.13617113 -583.75883698 2702.13604442 C-584.58005 2702.13596149 -585.40126301 2702.13587856 -586.24736127 2702.13579312 C-611.23730562 2702.13327281 -636.22724915 2702.13261721 -661.2171936 2702.13381577 C-662.88877979 2702.13389324 -664.56036598 2702.1339704 -666.23195217 2702.13404724 C-672.94888214 2702.13435769 -679.66581212 2702.13467635 -686.3827421 2702.135007 C-705.1608875 2702.13592414 -723.93903292 2702.13649464 -742.71717834 2702.13679314 C-743.57238493 2702.13680678 -744.42759151 2702.13682043 -745.30871344 2702.13683449 C-772.57095699 2702.13724394 -799.83320026 2702.13611598 -827.09544373 2702.13394356 C-827.98004123 2702.13387331 -828.86463874 2702.13380306 -829.77604223 2702.13373068 C-844.14253355 2702.13258565 -858.50902486 2702.13136623 -872.87551617 2702.13014051 C-929.85939438 2702.12528394 -986.84327024 2702.12550935 -1043.82714844 2702.13037109 C-1058.18628438 2702.13159222 -1072.54542032 2702.13280325 -1086.90455627 2702.13394356 C-1087.78862681 2702.13401401 -1088.67269735 2702.13408445 -1089.58355791 2702.13415704 C-1116.81664586 2702.1363123 -1144.04973362 2702.13722767 -1171.28282166 2702.13679314 C-1172.56469686 2702.13677276 -1172.56469686 2702.13677276 -1173.87246854 2702.13675197 C-1192.62953578 2702.13643953 -1211.386603 2702.13580597 -1230.14367021 2702.13488263 C-1236.85469832 2702.13455347 -1243.56572642 2702.1342404 -1250.27675453 2702.13393192 C-1251.94637778 2702.13385453 -1253.61600104 2702.1337758 -1255.2856243 2702.13369573 C-1280.27080421 2702.13250072 -1305.25598322 2702.13352131 -1330.24116302 2702.13604442 C-1331.06107294 2702.13612722 -1331.88098285 2702.13621001 -1332.72573853 2702.13629532 C-1333.54414475 2702.136378 -1334.36255097 2702.13646068 -1335.20575738 2702.13654587 C-1362.77009061 2702.1393002 -1390.33442147 2702.13829742 -1417.89875436 2702.13301457 C-1420.8548522 2702.13246219 -1423.81095004 2702.13192549 -1426.76704788 2702.13140106 C-1427.85530825 2702.13120575 -1427.85530825 2702.13120575 -1428.96555367 2702.1310065 C-1440.48271284 2702.12902925 -1451.99986909 2702.1304125 -1463.517028 2702.13317007 C-1474.82453009 2702.13580658 -1486.13202599 2702.13481797 -1497.4395279 2702.13015598 C-1503.49553251 2702.12776146 -1509.55152595 2702.12699618 -1515.60753024 2702.13056196 C-1521.10494762 2702.13376608 -1526.60234379 2702.13245823 -1532.09975959 2702.1273813 C-1534.08755783 2702.12636506 -1536.07535779 2702.1270637 -1538.06315468 2702.12958724 C-1540.74144334 2702.13274898 -1543.41965638 2702.12986632 -1546.0979414 2702.12534916 C-1546.87983579 2702.12773991 -1547.66173018 2702.13013065 -1548.46731834 2702.13259384 C-1553.77168861 2702.1141557 -1553.77168861 2702.1141557 -1556 2701 C-1556.85293195 2695.45594235 -1554.77539791 2692.77567464 -1551.703125 2688.46875 C-1549.39265685 2685.11963102 -1547.53778788 2681.58446694 -1545.62109375 2678 C-1543.53810379 2674.14521376 -1541.35847504 2670.34907649 -1539.17456055 2666.55078125 C-1537.34097432 2663.35726719 -1535.5240539 2660.15586274 -1533.734375 2656.9375 C-1529.87818534 2650.0075122 -1525.92814717 2643.21895619 -1521.609375 2636.5625 C-1519.43393283 2633.09868916 -1517.50970213 2629.52188502 -1515.578125 2625.91796875 C-1510.33131448 2616.21656414 -1504.68580264 2606.72399182 -1499.14672852 2597.1875 C-1496.13114063 2591.98536261 -1493.17477953 2586.7536068 -1490.25 2581.5 C-1487.21769266 2576.05878184 -1484.00089642 2570.78979907 -1480.609375 2565.5625 C-1478.43393283 2562.09868916 -1476.50970213 2558.52188502 -1474.578125 2554.91796875 C-1469.33131448 2545.21656414 -1463.68580264 2535.72399182 -1458.14672852 2526.1875 C-1455.13114063 2520.98536261 -1452.17477953 2515.7536068 -1449.25 2510.5 C-1446.21769266 2505.05878184 -1443.00089642 2499.78979907 -1439.609375 2494.5625 C-1437.43638594 2491.10259508 -1435.51378596 2487.53037802 -1433.5859375 2483.9296875 C-1431.5125267 2480.09949513 -1429.34512636 2476.32593302 -1427.17431641 2472.55029297 C-1425.34077214 2469.35696387 -1423.52396569 2466.15570411 -1421.734375 2462.9375 C-1417.87818534 2456.0075122 -1413.92814717 2449.21895619 -1409.609375 2442.5625 C-1407.43393283 2439.09868916 -1405.50970213 2435.52188502 -1403.578125 2431.91796875 C-1398.33131448 2422.21656414 -1392.68580264 2412.72399182 -1387.14672852 2403.1875 C-1384.13114063 2397.98536261 -1381.17477953 2392.7536068 -1378.25 2387.5 C-1375.21769266 2382.05878184 -1372.00089642 2376.78979907 -1368.609375 2371.5625 C-1366.43393283 2368.09868916 -1364.50970213 2364.52188502 -1362.578125 2360.91796875 C-1357.33131448 2351.21656414 -1351.68580264 2341.72399182 -1346.14672852 2332.1875 C-1343.13114063 2326.98536261 -1340.17477953 2321.7536068 -1337.25 2316.5 C-1334.21769266 2311.05878184 -1331.00089642 2305.78979907 -1327.609375 2300.5625 C-1325.43393283 2297.09868916 -1323.50970213 2293.52188502 -1321.578125 2289.91796875 C-1316.33171481 2280.21730437 -1310.6848694 2270.72700945 -1305.14892578 2261.18969727 C-1301.73483684 2255.29710536 -1298.38671893 2249.37002996 -1295.06274414 2243.42626953 C-1292.65223685 2239.12726871 -1290.15285173 2234.89374259 -1287.58984375 2230.68359375 C-1285.51406383 2227.17975884 -1283.54293337 2223.62083962 -1281.5625 2220.0625 C-1278.42552864 2214.43245848 -1275.11836784 2208.97085594 -1271.609375 2203.5625 C-1269.43393283 2200.09868916 -1267.50970213 2196.52188502 -1265.578125 2192.91796875 C-1260.33171481 2183.21730437 -1254.6848694 2173.72700945 -1249.14892578 2164.18969727 C-1245.73483684 2158.29710536 -1242.38671893 2152.37002996 -1239.06274414 2146.42626953 C-1236.65223685 2142.12726871 -1234.15285173 2137.89374259 -1231.58984375 2133.68359375 C-1229.51406383 2130.17975884 -1227.54293337 2126.62083962 -1225.5625 2123.0625 C-1222.42552864 2117.43245848 -1219.11836784 2111.97085594 -1215.609375 2106.5625 C-1213.43393283 2103.09868916 -1211.50970213 2099.52188502 -1209.578125 2095.91796875 C-1204.33171481 2086.21730437 -1198.6848694 2076.72700945 -1193.14892578 2067.18969727 C-1189.73483684 2061.29710536 -1186.38671893 2055.37002996 -1183.06274414 2049.42626953 C-1180.65223685 2045.12726871 -1178.15285173 2040.89374259 -1175.58984375 2036.68359375 C-1173.51406383 2033.17975884 -1171.54293337 2029.62083962 -1169.5625 2026.0625 C-1166.42552864 2020.43245848 -1163.11836784 2014.97085594 -1159.609375 2009.5625 C-1157.43393283 2006.09868916 -1155.50970213 2002.52188502 -1153.578125 1998.91796875 C-1148.33171481 1989.21730437 -1142.6848694 1979.72700945 -1137.14892578 1970.18969727 C-1133.73483684 1964.29710536 -1130.38671893 1958.37002996 -1127.06274414 1952.42626953 C-1124.65223685 1948.12726871 -1122.15285173 1943.89374259 -1119.58984375 1939.68359375 C-1117.51406383 1936.17975884 -1115.54293337 1932.62083962 -1113.5625 1929.0625 C-1110.42552864 1923.43245848 -1107.11836784 1917.97085594 -1103.609375 1912.5625 C-1101.43393283 1909.09868916 -1099.50970213 1905.52188502 -1097.578125 1901.91796875 C-1092.33131448 1892.21656414 -1086.68580264 1882.72399182 -1081.14672852 1873.1875 C-1078.13114063 1867.98536261 -1075.17477953 1862.7536068 -1072.25 1857.5 C-1069.21769266 1852.05878184 -1066.00089642 1846.78979907 -1062.609375 1841.5625 C-1060.43638594 1838.10259508 -1058.51378596 1834.53037802 -1056.5859375 1830.9296875 C-1054.5125267 1827.09949513 -1052.34512636 1823.32593302 -1050.17431641 1819.55029297 C-1048.34077214 1816.35696387 -1046.52396569 1813.15570411 -1044.734375 1809.9375 C-1040.87818534 1803.0075122 -1036.92814717 1796.21895619 -1032.609375 1789.5625 C-1030.43393283 1786.09868916 -1028.50970213 1782.52188502 -1026.578125 1778.91796875 C-1021.33131448 1769.21656414 -1015.68580264 1759.72399182 -1010.14672852 1750.1875 C-1007.13114063 1744.98536261 -1004.17477953 1739.7536068 -1001.25 1734.5 C-998.21769266 1729.05878184 -995.00089642 1723.78979907 -991.609375 1718.5625 C-989.43393283 1715.09868916 -987.50970213 1711.52188502 -985.578125 1707.91796875 C-978.12413066 1694.13545941 -970.0387151 1680.67215802 -962.16796875 1667.125 C-957.40673472 1658.92380754 -952.69085013 1650.70173322 -948.06201172 1642.42504883 C-945.65181768 1638.12641608 -943.15260437 1633.89333627 -940.58984375 1629.68359375 C-938.51406383 1626.17975884 -936.54293337 1622.62083962 -934.5625 1619.0625 C-931.42552864 1613.43245848 -928.11836784 1607.97085594 -924.609375 1602.5625 C-922.43393283 1599.09868916 -920.50970213 1595.52188502 -918.578125 1591.91796875 C-913.33171481 1582.21730437 -907.6848694 1572.72700945 -902.14892578 1563.18969727 C-898.73483684 1557.29710536 -895.38671893 1551.37002996 -892.06274414 1545.42626953 C-889.65223685 1541.12726871 -887.15285173 1536.89374259 -884.58984375 1532.68359375 C-882.51406383 1529.17975884 -880.54293337 1525.62083962 -878.5625 1522.0625 C-875.42552864 1516.43245848 -872.11836784 1510.97085594 -868.609375 1505.5625 C-866.43393283 1502.09868916 -864.50970213 1498.52188502 -862.578125 1494.91796875 C-857.33171481 1485.21730437 -851.6848694 1475.72700945 -846.14892578 1466.18969727 C-842.73483684 1460.29710536 -839.38671893 1454.37002996 -836.06274414 1448.42626953 C-833.65223685 1444.12726871 -831.15285173 1439.89374259 -828.58984375 1435.68359375 C-826.51406383 1432.17975884 -824.54293337 1428.62083962 -822.5625 1425.0625 C-819.42552864 1419.43245848 -816.11836784 1413.97085594 -812.609375 1408.5625 C-810.43393283 1405.09868916 -808.50970213 1401.52188502 -806.578125 1397.91796875 C-801.33131448 1388.21656414 -795.68580264 1378.72399182 -790.14672852 1369.1875 C-787.13114063 1363.98536261 -784.17477953 1358.7536068 -781.25 1353.5 C-778.21769266 1348.05878184 -775.00089642 1342.78979907 -771.609375 1337.5625 C-769.43638594 1334.10259508 -767.51378596 1330.53037802 -765.5859375 1326.9296875 C-763.5125267 1323.09949513 -761.34512636 1319.32593302 -759.17431641 1315.55029297 C-757.34077214 1312.35696387 -755.52396569 1309.15570411 -753.734375 1305.9375 C-749.87818534 1299.0075122 -745.92814717 1292.21895619 -741.609375 1285.5625 C-739.43393283 1282.09868916 -737.50970213 1278.52188502 -735.578125 1274.91796875 C-730.33131448 1265.21656414 -724.68580264 1255.72399182 -719.14672852 1246.1875 C-716.13114063 1240.98536261 -713.17477953 1235.7536068 -710.25 1230.5 C-707.21769266 1225.05878184 -704.00089642 1219.78979907 -700.609375 1214.5625 C-698.43393283 1211.09868916 -696.50970213 1207.52188502 -694.578125 1203.91796875 C-689.33131448 1194.21656414 -683.68580264 1184.72399182 -678.14672852 1175.1875 C-675.13114063 1169.98536261 -672.17477953 1164.7536068 -669.25 1159.5 C-666.21769266 1154.05878184 -663.00089642 1148.78979907 -659.609375 1143.5625 C-657.43638594 1140.10259508 -655.51378596 1136.53037802 -653.5859375 1132.9296875 C-651.5125267 1129.09949513 -649.34512636 1125.32593302 -647.17431641 1121.55029297 C-645.34077214 1118.35696387 -643.52396569 1115.15570411 -641.734375 1111.9375 C-637.87818534 1105.0075122 -633.92814717 1098.21895619 -629.609375 1091.5625 C-627.43393283 1088.09868916 -625.50970213 1084.52188502 -623.578125 1080.91796875 C-618.33131448 1071.21656414 -612.68580264 1061.72399182 -607.14672852 1052.1875 C-604.13114063 1046.98536261 -601.17477953 1041.7536068 -598.25 1036.5 C-595.21769266 1031.05878184 -592.00089642 1025.78979907 -588.609375 1020.5625 C-586.43393283 1017.09868916 -584.50970213 1013.52188502 -582.578125 1009.91796875 C-577.33131448 1000.21656414 -571.68580264 990.72399182 -566.14672852 981.1875 C-563.13114063 975.98536261 -560.17477953 970.7536068 -557.25 965.5 C-554.21769266 960.05878184 -551.00089642 954.78979907 -547.609375 949.5625 C-545.43393283 946.09868916 -543.50970213 942.52188502 -541.578125 938.91796875 C-536.33131448 929.21656414 -530.68580264 919.72399182 -525.14672852 910.1875 C-522.13114063 904.98536261 -519.17477953 899.7536068 -516.25 894.5 C-513.21769266 889.05878184 -510.00089642 883.78979907 -506.609375 878.5625 C-504.43393283 875.09868916 -502.50970213 871.52188502 -500.578125 867.91796875 C-495.33131448 858.21656414 -489.68580264 848.72399182 -484.14672852 839.1875 C-481.13114063 833.98536261 -478.17477953 828.7536068 -475.25 823.5 C-472.21769266 818.05878184 -469.00089642 812.78979907 -465.609375 807.5625 C-463.43638594 804.10259508 -461.51378596 800.53037802 -459.5859375 796.9296875 C-457.5125267 793.09949513 -455.34512636 789.32593302 -453.17431641 785.55029297 C-451.34077214 782.35696387 -449.52396569 779.15570411 -447.734375 775.9375 C-443.87818534 769.0075122 -439.92814717 762.21895619 -435.609375 755.5625 C-433.43393283 752.09868916 -431.50970213 748.52188502 -429.578125 744.91796875 C-424.33131448 735.21656414 -418.68580264 725.72399182 -413.14672852 716.1875 C-410.13114063 710.98536261 -407.17477953 705.7536068 -404.25 700.5 C-401.21769266 695.05878184 -398.00089642 689.78979907 -394.609375 684.5625 C-392.43638594 681.10259508 -390.51378596 677.53037802 -388.5859375 673.9296875 C-386.5125267 670.09949513 -384.34512636 666.32593302 -382.17431641 662.55029297 C-380.34077214 659.35696387 -378.52396569 656.15570411 -376.734375 652.9375 C-372.87818534 646.0075122 -368.92814717 639.21895619 -364.609375 632.5625 C-362.43393283 629.09868916 -360.50970213 625.52188502 -358.578125 621.91796875 C-353.33131448 612.21656414 -347.68580264 602.72399182 -342.14672852 593.1875 C-339.13114063 587.98536261 -336.17477953 582.7536068 -333.25 577.5 C-330.21769266 572.05878184 -327.00089642 566.78979907 -323.609375 561.5625 C-321.43393283 558.09868916 -319.50970213 554.52188502 -317.578125 550.91796875 C-312.33171481 541.21730437 -306.6848694 531.72700945 -301.14892578 522.18969727 C-297.73483684 516.29710536 -294.38671893 510.37002996 -291.06274414 504.42626953 C-288.65223685 500.12726871 -286.15285173 495.89374259 -283.58984375 491.68359375 C-281.51406383 488.17975884 -279.54293337 484.62083962 -277.5625 481.0625 C-274.42552864 475.43245848 -271.11836784 469.97085594 -267.609375 464.5625 C-265.43393283 461.09868916 -263.50970213 457.52188502 -261.578125 453.91796875 C-256.33131448 444.21656414 -250.68580264 434.72399182 -245.14672852 425.1875 C-242.13114063 419.98536261 -239.17477953 414.7536068 -236.25 409.5 C-233.21769266 404.05878184 -230.00089642 398.78979907 -226.609375 393.5625 C-224.43638594 390.10259508 -222.51378596 386.53037802 -220.5859375 382.9296875 C-218.5125267 379.09949513 -216.34512636 375.32593302 -214.17431641 371.55029297 C-212.34077214 368.35696387 -210.52396569 365.15570411 -208.734375 361.9375 C-204.87818534 355.0075122 -200.92814717 348.21895619 -196.609375 341.5625 C-194.43393283 338.09868916 -192.50970213 334.52188502 -190.578125 330.91796875 C-185.33131448 321.21656414 -179.68580264 311.72399182 -174.14672852 302.1875 C-171.13114063 296.98536261 -168.17477953 291.7536068 -165.25 286.5 C-162.21769266 281.05878184 -159.00089642 275.78979907 -155.609375 270.5625 C-153.43393283 267.09868916 -151.50970213 263.52188502 -149.578125 259.91796875 C-144.33131448 250.21656414 -138.68580264 240.72399182 -133.14672852 231.1875 C-130.13114063 225.98536261 -127.17477953 220.7536068 -124.25 215.5 C-121.21769266 210.05878184 -118.00089642 204.78979907 -114.609375 199.5625 C-112.43393283 196.09868916 -110.50970213 192.52188502 -108.578125 188.91796875 C-103.33171481 179.21730437 -97.6848694 169.72700945 -92.14892578 160.18969727 C-88.73483684 154.29710536 -85.38671893 148.37002996 -82.06274414 142.42626953 C-79.65223685 138.12726871 -77.15285173 133.89374259 -74.58984375 129.68359375 C-72.51406383 126.17975884 -70.54293337 122.62083962 -68.5625 119.0625 C-65.42552864 113.43245848 -62.11836784 107.97085594 -58.609375 102.5625 C-56.43393283 99.09868916 -54.50970213 95.52188502 -52.578125 91.91796875 C-47.33131448 82.21656414 -41.68580264 72.72399182 -36.14672852 63.1875 C-33.13114063 57.98536261 -30.17477953 52.7536068 -27.25 47.5 C-24.21769266 42.05878184 -21.00089642 36.78979907 -17.609375 31.5625 C-15.44596423 28.11784595 -13.53032466 24.56262214 -11.61328125 20.9765625 C-9.38555126 16.86631976 -7.0528215 12.81869547 -4.71508789 8.77026367 C-3.05475896 5.88566432 -1.44438449 2.99930861 0 0 Z " fill="#000000" transform="translate(1557,51)"/>
<path d="M0 0 C1.1431111 0.00351175 1.1431111 0.00351175 2.30931535 0.00709444 C3.11522425 0.005641 3.92113315 0.00418756 4.75146353 0.00269008 C7.48697048 -0.00099688 10.22242263 0.00252888 12.95792928 0.00595194 C14.92489702 0.00480118 16.89186455 0.00321397 18.85883161 0.0012247 C24.29126752 -0.0029749 29.72368601 -0.00087511 35.156122 0.00221092 C41.00418762 0.00446226 46.85225013 0.00098672 52.70031515 -0.00176901 C64.16776223 -0.00622864 75.63520279 -0.00524936 87.10265013 -0.00235637 C96.41849586 -0.00010298 105.73433976 0.00021047 115.05018583 -0.00088018 C115.71111425 -0.00095657 116.37204268 -0.00103295 117.05299924 -0.00111165 C119.73565931 -0.00142297 122.41831938 -0.00174137 125.10097946 -0.00207142 C150.28845725 -0.00513335 175.47593147 -0.00235238 200.66340872 0.00302548 C223.05895252 0.00777086 245.45449063 0.00734726 267.85003439 0.00256449 C292.98873785 -0.00278611 318.12743815 -0.00491568 343.2661421 -0.00182325 C345.94433978 -0.00150251 348.62253746 -0.00118967 351.30073515 -0.00088018 C352.61863933 -0.00072591 353.93654352 -0.00057163 355.29438419 -0.00041268 C364.60392997 0.00045255 373.91347293 -0.00101054 383.22301832 -0.00335974 C394.56130453 -0.00615782 405.89958381 -0.00541931 417.23786923 -0.00007899 C423.02836475 0.00255798 428.8188487 0.00356315 434.60934415 0.00027186 C439.90224333 -0.00269121 445.19512012 -0.0010981 450.48801724 0.00424941 C452.41062103 0.00537355 454.33322668 0.00478247 456.2558293 0.00237362 C458.85377379 -0.00063359 461.45163996 0.00241754 464.04958025 0.00709444 C465.1891796 0.00358269 465.1891796 0.00358269 466.35180116 0 C471.51406766 0.01878523 471.51406766 0.01878523 473.74236837 1.13293558 C474.59530032 6.67699323 472.51776628 9.35726095 469.44549337 13.66418558 C467.13502522 17.01330456 465.28015625 20.54846864 463.36346212 24.13293558 C461.28047216 27.98772182 459.10084341 31.78385909 456.91692892 35.58215433 C455.08334269 38.77566839 453.26642227 41.97707285 451.47674337 45.19543558 C447.62055371 52.12542338 443.67051554 58.9139794 439.35174337 65.57043558 C437.1763012 69.03424642 435.2520705 72.61105056 433.32049337 76.21496683 C428.07368285 85.91637144 422.42817101 95.40894376 416.88909689 104.94543558 C413.873509 110.14757298 410.9171479 115.37932879 407.99236837 120.63293558 C404.96006103 126.07415375 401.74326479 131.34313651 398.35174337 136.57043558 C396.1763012 140.03424642 394.2520705 143.61105056 392.32049337 147.21496683 C387.07368285 156.91637144 381.42817101 166.40894376 375.88909689 175.94543558 C372.873509 181.14757298 369.9171479 186.37932879 366.99236837 191.63293558 C363.96006103 197.07415375 360.74326479 202.34313651 357.35174337 207.57043558 C355.17875431 211.0303405 353.25615433 214.60255757 351.32830587 218.20324808 C349.25489507 222.03344045 347.08749473 225.80700256 344.91668478 229.58264261 C343.08314051 232.77597171 341.26633406 235.97723147 339.47674337 239.19543558 C335.62055371 246.12542338 331.67051554 252.9139794 327.35174337 259.57043558 C325.1763012 263.03424642 323.2520705 266.61105056 321.32049337 270.21496683 C316.07368285 279.91637144 310.42817101 289.40894376 304.88909689 298.94543558 C301.873509 304.14757298 298.9171479 309.37932879 295.99236837 314.63293558 C292.96006103 320.07415375 289.74326479 325.34313651 286.35174337 330.57043558 C284.1763012 334.03424642 282.2520705 337.61105056 280.32049337 341.21496683 C275.07368285 350.91637144 269.42817101 360.40894376 263.88909689 369.94543558 C260.873509 375.14757298 257.9171479 380.37932879 254.99236837 385.63293558 C251.96006103 391.07415375 248.74326479 396.34313651 245.35174337 401.57043558 C243.1763012 405.03424642 241.2520705 408.61105056 239.32049337 412.21496683 C234.07408318 421.91563122 228.42723777 431.40592613 222.89129415 440.94323832 C219.47720521 446.83583022 216.1290873 452.76290562 212.80511251 458.70666605 C210.39460522 463.00566688 207.8952201 467.23919299 205.33221212 471.44934183 C203.2564322 474.95317674 201.28530174 478.51209596 199.30486837 482.07043558 C196.16789701 487.70047711 192.86073621 493.16207964 189.35174337 498.57043558 C187.1763012 502.03424642 185.2520705 505.61105056 183.32049337 509.21496683 C178.07408318 518.91563122 172.42723777 528.40592613 166.89129415 537.94323832 C163.47720521 543.83583022 160.1290873 549.76290562 156.80511251 555.70666605 C154.39460522 560.00566688 151.8952201 564.23919299 149.33221212 568.44934183 C147.2564322 571.95317674 145.28530174 575.51209596 143.30486837 579.07043558 C140.16789701 584.70047711 136.86073621 590.16207964 133.35174337 595.57043558 C131.1763012 599.03424642 129.2520705 602.61105056 127.32049337 606.21496683 C122.07408318 615.91563122 116.42723777 625.40592613 110.89129415 634.94323832 C107.47720521 640.83583022 104.1290873 646.76290562 100.80511251 652.70666605 C98.39460522 657.00566688 95.8952201 661.23919299 93.33221212 665.44934183 C91.2564322 668.95317674 89.28530174 672.51209596 87.30486837 676.07043558 C84.16789701 681.70047711 80.86073621 687.16207964 77.35174337 692.57043558 C75.1763012 696.03424642 73.2520705 699.61105056 71.32049337 703.21496683 C66.07408318 712.91563122 60.42723777 722.40592613 54.89129415 731.94323832 C51.47720521 737.83583022 48.1290873 743.76290562 44.80511251 749.70666605 C42.39460522 754.00566688 39.8952201 758.23919299 37.33221212 762.44934183 C35.2564322 765.95317674 33.28530174 769.51209596 31.30486837 773.07043558 C28.16789701 778.70047711 24.86073621 784.16207964 21.35174337 789.57043558 C19.1763012 793.03424642 17.2520705 796.61105056 15.32049337 800.21496683 C10.07368285 809.91637144 4.42817101 819.40894376 -1.11090311 828.94543558 C-4.126491 834.14757298 -7.0828521 839.37932879 -10.00763163 844.63293558 C-13.03993897 850.07415375 -16.25673521 855.34313651 -19.64825663 860.57043558 C-21.82124569 864.0303405 -23.74384567 867.60255757 -25.67169413 871.20324808 C-27.74510493 875.03344045 -29.91250527 878.80700256 -32.08331522 882.58264261 C-33.91685949 885.77597171 -35.73366594 888.97723147 -37.52325663 892.19543558 C-41.37944629 899.12542338 -45.32948446 905.9139794 -49.64825663 912.57043558 C-51.8236988 916.03424642 -53.7479295 919.61105056 -55.67950663 923.21496683 C-60.92631715 932.91637144 -66.57182899 942.40894376 -72.11090311 951.94543558 C-75.126491 957.14757298 -78.0828521 962.37932879 -81.00763163 967.63293558 C-84.03993897 973.07415375 -87.25673521 978.34313651 -90.64825663 983.57043558 C-92.8236988 987.03424642 -94.7479295 990.61105056 -96.67950663 994.21496683 C-101.92631715 1003.91637144 -107.57182899 1013.40894376 -113.11090311 1022.94543558 C-116.126491 1028.14757298 -119.0828521 1033.37932879 -122.00763163 1038.63293558 C-125.03993897 1044.07415375 -128.25673521 1049.34313651 -131.64825663 1054.57043558 C-133.8236988 1058.03424642 -135.7479295 1061.61105056 -137.67950663 1065.21496683 C-142.92631715 1074.91637144 -148.57182899 1084.40894376 -154.11090311 1093.94543558 C-157.126491 1099.14757298 -160.0828521 1104.37932879 -163.00763163 1109.63293558 C-166.03993897 1115.07415375 -169.25673521 1120.34313651 -172.64825663 1125.57043558 C-174.8236988 1129.03424642 -176.7479295 1132.61105056 -178.67950663 1136.21496683 C-183.92631715 1145.91637144 -189.57182899 1155.40894376 -195.11090311 1164.94543558 C-198.126491 1170.14757298 -201.0828521 1175.37932879 -204.00763163 1180.63293558 C-207.03993897 1186.07415375 -210.25673521 1191.34313651 -213.64825663 1196.57043558 C-215.8236988 1200.03424642 -217.7479295 1203.61105056 -219.67950663 1207.21496683 C-224.92591682 1216.91563122 -230.57276223 1226.40592613 -236.10870585 1235.94323832 C-239.52279479 1241.83583022 -242.8709127 1247.76290562 -246.19488749 1253.70666605 C-248.60539478 1258.00566688 -251.1047799 1262.23919299 -253.66778788 1266.44934183 C-255.7435678 1269.95317674 -257.71469826 1273.51209596 -259.69513163 1277.07043558 C-262.83210299 1282.70047711 -266.13926379 1288.16207964 -269.64825663 1293.57043558 C-271.82124569 1297.0303405 -273.74384567 1300.60255757 -275.67169413 1304.20324808 C-277.74510493 1308.03344045 -279.91250527 1311.80700256 -282.08331522 1315.58264261 C-283.91685949 1318.77597171 -285.73366594 1321.97723147 -287.52325663 1325.19543558 C-291.37944629 1332.12542338 -295.32948446 1338.9139794 -299.64825663 1345.57043558 C-301.8236988 1349.03424642 -303.7479295 1352.61105056 -305.67950663 1356.21496683 C-310.92631715 1365.91637144 -316.57182899 1375.40894376 -322.11090311 1384.94543558 C-325.126491 1390.14757298 -328.0828521 1395.37932879 -331.00763163 1400.63293558 C-334.03993897 1406.07415375 -337.25673521 1411.34313651 -340.64825663 1416.57043558 C-342.82681243 1420.03920404 -344.75353988 1423.62120805 -346.68731913 1427.23059183 C-348.66457346 1430.88506936 -350.73007423 1434.48558922 -352.79986796 1438.08825785 C-355.03245623 1441.97954839 -357.24663624 1445.88071642 -359.44903788 1449.78918558 C-360.01485575 1450.79304301 -360.58067362 1451.79690043 -361.16363749 1452.83117777 C-362.28141959 1454.81559423 -363.39817525 1456.80058934 -364.51373515 1458.7862559 C-367.9955495 1464.964545 -371.58948469 1471.06377029 -375.25763163 1477.13293558 C-378.78447184 1483.08495659 -382.23382657 1489.07637713 -385.60089335 1495.11999613 C-389.10303217 1501.40359304 -392.73102289 1507.53286432 -396.64825663 1513.57043558 C-398.8236988 1517.03424642 -400.7479295 1520.61105056 -402.67950663 1524.21496683 C-407.92631715 1533.91637144 -413.57182899 1543.40894376 -419.11090311 1552.94543558 C-422.126491 1558.14757298 -425.0828521 1563.37932879 -428.00763163 1568.63293558 C-431.03993897 1574.07415375 -434.25673521 1579.34313651 -437.64825663 1584.57043558 C-439.8236988 1588.03424642 -441.7479295 1591.61105056 -443.67950663 1595.21496683 C-448.92631715 1604.91637144 -454.57182899 1614.40894376 -460.11090311 1623.94543558 C-463.126491 1629.14757298 -466.0828521 1634.37932879 -469.00763163 1639.63293558 C-472.03993897 1645.07415375 -475.25673521 1650.34313651 -478.64825663 1655.57043558 C-480.82124569 1659.0303405 -482.74384567 1662.60255757 -484.67169413 1666.20324808 C-486.74510493 1670.03344045 -488.91250527 1673.80700256 -491.08331522 1677.58264261 C-492.91685949 1680.77597171 -494.73366594 1683.97723147 -496.52325663 1687.19543558 C-500.37944629 1694.12542338 -504.32948446 1700.9139794 -508.64825663 1707.57043558 C-510.8236988 1711.03424642 -512.7479295 1714.61105056 -514.67950663 1718.21496683 C-519.92631715 1727.91637144 -525.57182899 1737.40894376 -531.11090311 1746.94543558 C-534.126491 1752.14757298 -537.0828521 1757.37932879 -540.00763163 1762.63293558 C-543.03993897 1768.07415375 -546.25673521 1773.34313651 -549.64825663 1778.57043558 C-551.8236988 1782.03424642 -553.7479295 1785.61105056 -555.67950663 1789.21496683 C-560.92591682 1798.91563122 -566.57276223 1808.40592613 -572.10870585 1817.94323832 C-575.52279479 1823.83583022 -578.8709127 1829.76290562 -582.19488749 1835.70666605 C-584.60539478 1840.00566688 -587.1047799 1844.23919299 -589.66778788 1848.44934183 C-591.7435678 1851.95317674 -593.71469826 1855.51209596 -595.69513163 1859.07043558 C-598.83210299 1864.70047711 -602.13926379 1870.16207964 -605.64825663 1875.57043558 C-607.8236988 1879.03424642 -609.7479295 1882.61105056 -611.67950663 1886.21496683 C-616.92631715 1895.91637144 -622.57182899 1905.40894376 -628.11090311 1914.94543558 C-631.126491 1920.14757298 -634.0828521 1925.37932879 -637.00763163 1930.63293558 C-640.03993897 1936.07415375 -643.25673521 1941.34313651 -646.64825663 1946.57043558 C-648.8236988 1950.03424642 -650.7479295 1953.61105056 -652.67950663 1957.21496683 C-657.92591682 1966.91563122 -663.57276223 1976.40592613 -669.10870585 1985.94323832 C-672.52279479 1991.83583022 -675.8709127 1997.76290562 -679.19488749 2003.70666605 C-681.60539478 2008.00566688 -684.1047799 2012.23919299 -686.66778788 2016.44934183 C-688.7435678 2019.95317674 -690.71469826 2023.51209596 -692.69513163 2027.07043558 C-695.83210299 2032.70047711 -699.13926379 2038.16207964 -702.64825663 2043.57043558 C-704.8236988 2047.03424642 -706.7479295 2050.61105056 -708.67950663 2054.21496683 C-713.92631715 2063.91637144 -719.57182899 2073.40894376 -725.11090311 2082.94543558 C-728.126491 2088.14757298 -731.0828521 2093.37932879 -734.00763163 2098.63293558 C-737.03993897 2104.07415375 -740.25673521 2109.34313651 -743.64825663 2114.57043558 C-745.82124569 2118.0303405 -747.74384567 2121.60255757 -749.67169413 2125.20324808 C-751.74510493 2129.03344045 -753.91250527 2132.80700256 -756.08331522 2136.58264261 C-757.91685949 2139.77597171 -759.73366594 2142.97723147 -761.52325663 2146.19543558 C-765.37944629 2153.12542338 -769.32948446 2159.9139794 -773.64825663 2166.57043558 C-775.8236988 2170.03424642 -777.7479295 2173.61105056 -779.67950663 2177.21496683 C-784.92631715 2186.91637144 -790.57182899 2196.40894376 -796.11090311 2205.94543558 C-799.126491 2211.14757298 -802.0828521 2216.37932879 -805.00763163 2221.63293558 C-808.03993897 2227.07415375 -811.25673521 2232.34313651 -814.64825663 2237.57043558 C-816.8236988 2241.03424642 -818.7479295 2244.61105056 -820.67950663 2248.21496683 C-825.92631715 2257.91637144 -831.57182899 2267.40894376 -837.11090311 2276.94543558 C-840.126491 2282.14757298 -843.0828521 2287.37932879 -846.00763163 2292.63293558 C-849.03993897 2298.07415375 -852.25673521 2303.34313651 -855.64825663 2308.57043558 C-857.8236988 2312.03424642 -859.7479295 2315.61105056 -861.67950663 2319.21496683 C-866.92591682 2328.91563122 -872.57276223 2338.40592613 -878.10870585 2347.94323832 C-881.52279479 2353.83583022 -884.8709127 2359.76290562 -888.19488749 2365.70666605 C-890.60539478 2370.00566688 -893.1047799 2374.23919299 -895.66778788 2378.44934183 C-897.7435678 2381.95317674 -899.71469826 2385.51209596 -901.69513163 2389.07043558 C-904.83210299 2394.70047711 -908.13926379 2400.16207964 -911.64825663 2405.57043558 C-913.8236988 2409.03424642 -915.7479295 2412.61105056 -917.67950663 2416.21496683 C-922.92591682 2425.91563122 -928.57276223 2435.40592613 -934.10870585 2444.94323832 C-937.52279479 2450.83583022 -940.8709127 2456.76290562 -944.19488749 2462.70666605 C-946.60539478 2467.00566688 -949.1047799 2471.23919299 -951.66778788 2475.44934183 C-953.7435678 2478.95317674 -955.71469826 2482.51209596 -957.69513163 2486.07043558 C-960.83210299 2491.70047711 -964.13926379 2497.16207964 -967.64825663 2502.57043558 C-969.8236988 2506.03424642 -971.7479295 2509.61105056 -973.67950663 2513.21496683 C-978.92591682 2522.91563122 -984.57276223 2532.40592613 -990.10870585 2541.94323832 C-993.52279479 2547.83583022 -996.8709127 2553.76290562 -1000.19488749 2559.70666605 C-1002.60539478 2564.00566688 -1005.1047799 2568.23919299 -1007.66778788 2572.44934183 C-1009.7435678 2575.95317674 -1011.71469826 2579.51209596 -1013.69513163 2583.07043558 C-1016.83210299 2588.70047711 -1020.13926379 2594.16207964 -1023.64825663 2599.57043558 C-1025.8236988 2603.03424642 -1027.7479295 2606.61105056 -1029.67950663 2610.21496683 C-1034.92631715 2619.91637144 -1040.57182899 2629.40894376 -1046.11090311 2638.94543558 C-1049.126491 2644.14757298 -1052.0828521 2649.37932879 -1055.00763163 2654.63293558 C-1058.03993897 2660.07415375 -1061.25673521 2665.34313651 -1064.64825663 2670.57043558 C-1066.8116674 2674.01508963 -1068.72730697 2677.57031344 -1070.64435038 2681.15637308 C-1072.87208037 2685.26661583 -1075.20481013 2689.31424011 -1077.54254374 2693.36267191 C-1079.20287267 2696.24727127 -1080.81324714 2699.13362698 -1082.25763163 2702.13293558 C-1084.23763163 2702.13293558 -1086.21763163 2702.13293558 -1088.25763163 2702.13293558 C-1088.58634257 2701.51289652 -1088.9150535 2700.89285746 -1089.25372538 2700.25402933 C-1092.27927392 2694.62109749 -1095.44451537 2689.09964692 -1098.75763163 2683.63293558 C-1101.89197179 2678.45705627 -1104.88576289 2673.23593825 -1107.75372538 2667.90637308 C-1113.19688423 2657.86833988 -1119.06955292 2648.09206423 -1124.96832499 2638.31799418 C-1128.03490507 2633.22051792 -1130.97425895 2628.08428779 -1133.76935038 2622.83215433 C-1136.04220998 2618.7099864 -1138.50270271 2614.70378819 -1140.9419578 2610.67858988 C-1143.65201124 2606.18922571 -1146.18740381 2601.63069419 -1148.66388163 2597.00793558 C-1150.61053682 2593.49632229 -1152.67699685 2590.06632631 -1154.75763163 2586.63293558 C-1157.87176882 2581.49409533 -1160.82582488 2576.30564152 -1163.66388163 2571.00793558 C-1165.61054049 2567.49631568 -1167.67711809 2564.06640532 -1169.75763163 2560.63293558 C-1172.89193091 2555.45703446 -1175.88576254 2550.23593891 -1178.75372538 2544.90637308 C-1184.19688423 2534.86833988 -1190.06955292 2525.09206423 -1195.96832499 2515.31799418 C-1199.03490507 2510.22051792 -1201.97425895 2505.08428779 -1204.76935038 2499.83215433 C-1207.04220998 2495.7099864 -1209.50270271 2491.70378819 -1211.9419578 2487.67858988 C-1214.65201124 2483.18922571 -1217.18740381 2478.63069419 -1219.66388163 2474.00793558 C-1221.61054049 2470.49631568 -1223.67711809 2467.06640532 -1225.75763163 2463.63293558 C-1228.89193091 2458.45703446 -1231.88576254 2453.23593891 -1234.75372538 2447.90637308 C-1240.19688423 2437.86833988 -1246.06955292 2428.09206423 -1251.96832499 2418.31799418 C-1255.03490507 2413.22051792 -1257.97425895 2408.08428779 -1260.76935038 2402.83215433 C-1262.67495764 2399.37605297 -1264.71267571 2396.00791003 -1266.75763163 2392.63293558 C-1269.89191731 2387.45702721 -1272.88576242 2382.23593913 -1275.75372538 2376.90637308 C-1281.19688423 2366.86833988 -1287.06955292 2357.09206423 -1292.96832499 2347.31799418 C-1296.03490507 2342.22051792 -1298.97425895 2337.08428779 -1301.76935038 2331.83215433 C-1304.04220998 2327.7099864 -1306.50270271 2323.70378819 -1308.9419578 2319.67858988 C-1311.65201124 2315.18922571 -1314.18740381 2310.63069419 -1316.66388163 2306.00793558 C-1318.61054049 2302.49631568 -1320.67711809 2299.06640532 -1322.75763163 2295.63293558 C-1325.89193091 2290.45703446 -1328.88576254 2285.23593891 -1331.75372538 2279.90637308 C-1337.19688423 2269.86833988 -1343.06955292 2260.09206423 -1348.96832499 2250.31799418 C-1352.03490507 2245.22051792 -1354.97425895 2240.08428779 -1357.76935038 2234.83215433 C-1359.67495764 2231.37605297 -1361.71267571 2228.00791003 -1363.75763163 2224.63293558 C-1366.89191731 2219.45702721 -1369.88576242 2214.23593913 -1372.75372538 2208.90637308 C-1378.19688423 2198.86833988 -1384.06955292 2189.09206423 -1389.96832499 2179.31799418 C-1393.03490507 2174.22051792 -1395.97425895 2169.08428779 -1398.76935038 2163.83215433 C-1400.67495764 2160.37605297 -1402.71267571 2157.00791003 -1404.75763163 2153.63293558 C-1407.89191731 2148.45702721 -1410.88576242 2143.23593913 -1413.75372538 2137.90637308 C-1419.19688423 2127.86833988 -1425.06955292 2118.09206423 -1430.96832499 2108.31799418 C-1434.03490507 2103.22051792 -1436.97425895 2098.08428779 -1439.76935038 2092.83215433 C-1442.04220998 2088.7099864 -1444.50270271 2084.70378819 -1446.9419578 2080.67858988 C-1449.65201124 2076.18922571 -1452.18740381 2071.63069419 -1454.66388163 2067.00793558 C-1456.61054049 2063.49631568 -1458.67711809 2060.06640532 -1460.75763163 2056.63293558 C-1463.89193091 2051.45703446 -1466.88576254 2046.23593891 -1469.75372538 2040.90637308 C-1475.19688423 2030.86833988 -1481.06955292 2021.09206423 -1486.96832499 2011.31799418 C-1490.03490507 2006.22051792 -1492.97425895 2001.08428779 -1495.76935038 1995.83215433 C-1498.04220998 1991.7099864 -1500.50270271 1987.70378819 -1502.9419578 1983.67858988 C-1505.65201124 1979.18922571 -1508.18740381 1974.63069419 -1510.66388163 1970.00793558 C-1512.61054049 1966.49631568 -1514.67711809 1963.06640532 -1516.75763163 1959.63293558 C-1519.89193091 1954.45703446 -1522.88576254 1949.23593891 -1525.75372538 1943.90637308 C-1531.19688423 1933.86833988 -1537.06955292 1924.09206423 -1542.96832499 1914.31799418 C-1546.03490507 1909.22051792 -1548.97425895 1904.08428779 -1551.76935038 1898.83215433 C-1554.04220998 1894.7099864 -1556.50270271 1890.70378819 -1558.9419578 1886.67858988 C-1561.65201124 1882.18922571 -1564.18740381 1877.63069419 -1566.66388163 1873.00793558 C-1568.61054049 1869.49631568 -1570.67711809 1866.06640532 -1572.75763163 1862.63293558 C-1575.89193091 1857.45703446 -1578.88576254 1852.23593891 -1581.75372538 1846.90637308 C-1587.19688423 1836.86833988 -1593.06955292 1827.09206423 -1598.96832499 1817.31799418 C-1602.03490507 1812.22051792 -1604.97425895 1807.08428779 -1607.76935038 1801.83215433 C-1610.04220998 1797.7099864 -1612.50270271 1793.70378819 -1614.9419578 1789.67858988 C-1617.65201124 1785.18922571 -1620.18740381 1780.63069419 -1622.66388163 1776.00793558 C-1624.61054049 1772.49631568 -1626.67711809 1769.06640532 -1628.75763163 1765.63293558 C-1631.89193091 1760.45703446 -1634.88576254 1755.23593891 -1637.75372538 1749.90637308 C-1643.19688423 1739.86833988 -1649.06955292 1730.09206423 -1654.96832499 1720.31799418 C-1658.03490507 1715.22051792 -1660.97425895 1710.08428779 -1663.76935038 1704.83215433 C-1665.67495764 1701.37605297 -1667.71267571 1698.00791003 -1669.75763163 1694.63293558 C-1672.89191731 1689.45702721 -1675.88576242 1684.23593913 -1678.75372538 1678.90637308 C-1684.19688423 1668.86833988 -1690.06955292 1659.09206423 -1695.96832499 1649.31799418 C-1699.03490507 1644.22051792 -1701.97425895 1639.08428779 -1704.76935038 1633.83215433 C-1707.04220998 1629.7099864 -1709.50270271 1625.70378819 -1711.9419578 1621.67858988 C-1714.65201124 1617.18922571 -1717.18740381 1612.63069419 -1719.66388163 1608.00793558 C-1721.61054049 1604.49631568 -1723.67711809 1601.06640532 -1725.75763163 1597.63293558 C-1728.89193091 1592.45703446 -1731.88576254 1587.23593891 -1734.75372538 1581.90637308 C-1740.19688423 1571.86833988 -1746.06955292 1562.09206423 -1751.96832499 1552.31799418 C-1755.03490507 1547.22051792 -1757.97425895 1542.08428779 -1760.76935038 1536.83215433 C-1763.04220998 1532.7099864 -1765.50270271 1528.70378819 -1767.9419578 1524.67858988 C-1770.65201124 1520.18922571 -1773.18740381 1515.63069419 -1775.66388163 1511.00793558 C-1777.61054049 1507.49631568 -1779.67711809 1504.06640532 -1781.75763163 1500.63293558 C-1784.89193091 1495.45703446 -1787.88576254 1490.23593891 -1790.75372538 1484.90637308 C-1796.19688423 1474.86833988 -1802.06955292 1465.09206423 -1807.96832499 1455.31799418 C-1811.03490507 1450.22051792 -1813.97425895 1445.08428779 -1816.76935038 1439.83215433 C-1819.04220998 1435.7099864 -1821.50270271 1431.70378819 -1823.9419578 1427.67858988 C-1826.65201124 1423.18922571 -1829.18740381 1418.63069419 -1831.66388163 1414.00793558 C-1833.61054049 1410.49631568 -1835.67711809 1407.06640532 -1837.75763163 1403.63293558 C-1840.89193091 1398.45703446 -1843.88576254 1393.23593891 -1846.75372538 1387.90637308 C-1852.19688423 1377.86833988 -1858.06955292 1368.09206423 -1863.96832499 1358.31799418 C-1867.03490507 1353.22051792 -1869.97425895 1348.08428779 -1872.76935038 1342.83215433 C-1875.04220998 1338.7099864 -1877.50270271 1334.70378819 -1879.9419578 1330.67858988 C-1882.65201124 1326.18922571 -1885.18740381 1321.63069419 -1887.66388163 1317.00793558 C-1889.61054049 1313.49631568 -1891.67711809 1310.06640532 -1893.75763163 1306.63293558 C-1896.89193091 1301.45703446 -1899.88576254 1296.23593891 -1902.75372538 1290.90637308 C-1908.19688423 1280.86833988 -1914.06955292 1271.09206423 -1919.96832499 1261.31799418 C-1923.03490507 1256.22051792 -1925.97425895 1251.08428779 -1928.76935038 1245.83215433 C-1930.67495764 1242.37605297 -1932.71267571 1239.00791003 -1934.75763163 1235.63293558 C-1937.89191731 1230.45702721 -1940.88576242 1225.23593913 -1943.75372538 1219.90637308 C-1949.19688423 1209.86833988 -1955.06955292 1200.09206423 -1960.96832499 1190.31799418 C-1964.03490507 1185.22051792 -1966.97425895 1180.08428779 -1969.76935038 1174.83215433 C-1972.04220998 1170.7099864 -1974.50270271 1166.70378819 -1976.9419578 1162.67858988 C-1979.65201124 1158.18922571 -1982.18740381 1153.63069419 -1984.66388163 1149.00793558 C-1986.61053682 1145.49632229 -1988.67699685 1142.06632631 -1990.75763163 1138.63293558 C-1993.87176882 1133.49409533 -1996.82582488 1128.30564152 -1999.66388163 1123.00793558 C-2001.61054049 1119.49631568 -2003.67711809 1116.06640532 -2005.75763163 1112.63293558 C-2008.89193091 1107.45703446 -2011.88576254 1102.23593891 -2014.75372538 1096.90637308 C-2020.19688423 1086.86833988 -2026.06955292 1077.09206423 -2031.96832499 1067.31799418 C-2035.03490507 1062.22051792 -2037.97425895 1057.08428779 -2040.76935038 1051.83215433 C-2043.04220998 1047.7099864 -2045.50270271 1043.70378819 -2047.9419578 1039.67858988 C-2050.65201124 1035.18922571 -2053.18740381 1030.63069419 -2055.66388163 1026.00793558 C-2057.61054049 1022.49631568 -2059.67711809 1019.06640532 -2061.75763163 1015.63293558 C-2064.89193091 1010.45703446 -2067.88576254 1005.23593891 -2070.75372538 999.90637308 C-2076.19688423 989.86833988 -2082.06955292 980.09206423 -2087.96832499 970.31799418 C-2091.03490507 965.22051792 -2093.97425895 960.08428779 -2096.76935038 954.83215433 C-2098.67495764 951.37605297 -2100.71267571 948.00791003 -2102.75763163 944.63293558 C-2105.89191731 939.45702721 -2108.88576242 934.23593913 -2111.75372538 928.90637308 C-2117.19688423 918.86833988 -2123.06955292 909.09206423 -2128.96832499 899.31799418 C-2132.03490507 894.22051792 -2134.97425895 889.08428779 -2137.76935038 883.83215433 C-2139.67495764 880.37605297 -2141.71267571 877.00791003 -2143.75763163 873.63293558 C-2146.87859042 868.47903502 -2149.86411233 863.28262839 -2152.71466288 857.97277933 C-2154.60135338 854.50031353 -2156.54799055 851.06462409 -2158.50763163 847.63293558 C-2159.02015482 846.73272684 -2159.02015482 846.73272684 -2159.54303202 845.81433207 C-2161.04334245 843.19299268 -2162.58126371 840.64748746 -2164.25763163 838.13293558 C-2164.44513163 835.50793558 -2164.44513163 835.50793558 -2164.25763163 833.13293558 C-2162.28138396 831.15668792 -2158.379009 831.97742944 -2155.67620978 831.9735747 C-2154.86872171 831.9685261 -2154.06123364 831.9634775 -2153.22927624 831.95827591 C-2150.48835928 831.94243461 -2147.74746625 831.93383654 -2145.00651774 831.92520243 C-2143.03557486 831.915469 -2141.06463395 831.90533028 -2139.09369507 831.89481825 C-2133.65005949 831.86720319 -2128.20641506 831.84614878 -2122.7627463 831.82630235 C-2118.10034121 831.80853956 -2113.43795565 831.78711222 -2108.77556583 831.76576264 C-2065.3087837 831.56776481 -2021.84150539 831.46350972 -1978.37436188 831.3813171 C-1971.90649598 831.36904644 -1965.43863102 831.35630371 -1958.9707664 831.3433848 C-1958.2560657 831.34196782 -1957.54136501 831.34055084 -1956.80500672 831.33909092 C-1933.63500853 831.29283928 -1910.46546001 831.2018031 -1887.29571043 831.08653864 C-1863.48424583 830.96829716 -1839.67302587 830.89241992 -1815.86126745 830.8709487 C-1812.49847528 830.867903 -1809.13568374 830.86438722 -1805.77289233 830.8605929 C-1804.78012753 830.8594979 -1804.78012753 830.8594979 -1803.76730688 830.85838078 C-1793.77176685 830.84621402 -1783.77702561 830.79669917 -1773.78175387 830.72787958 C-1762.41120838 830.64960454 -1751.0416106 830.61492246 -1739.67079946 830.63790448 C-1733.86661326 830.64823677 -1728.06448683 830.63729548 -1722.26063952 830.56980616 C-1716.94780845 830.50850026 -1711.63846273 830.50705466 -1706.32551173 830.55346267 C-1704.40273962 830.55965879 -1702.47974511 830.54379115 -1700.55737945 830.50377543 C-1686.56339294 830.22971769 -1686.56339294 830.22971769 -1682.72631566 833.39691201 C-1679.73087366 836.91302976 -1678.01046384 840.87484181 -1676.25763163 845.13293558 C-1675.29810699 846.93519785 -1674.32257148 848.7291857 -1673.32013163 850.50793558 C-1672.61050272 851.8343809 -1672.61050272 851.8343809 -1671.88653788 853.18762308 C-1669.93047164 856.72449106 -1667.85265549 860.17716364 -1665.75763163 863.63293558 C-1662.64339583 868.77171378 -1659.68943525 873.9602355 -1656.85138163 879.25793558 C-1654.90472277 882.76955549 -1652.83814517 886.19946584 -1650.75763163 889.63293558 C-1647.62333235 894.80883671 -1644.62950072 900.02993226 -1641.76153788 905.35949808 C-1636.31837903 915.39753128 -1630.44571034 925.17380694 -1624.54693827 934.94787699 C-1621.48035819 940.04535325 -1618.54100431 945.18158338 -1615.74591288 950.43371683 C-1613.47305328 954.55588476 -1611.01256055 958.56208297 -1608.57330546 962.58728129 C-1605.86325201 967.07664546 -1603.32785945 971.63517698 -1600.85138163 976.25793558 C-1598.90472277 979.76955549 -1596.83814517 983.19946584 -1594.75763163 986.63293558 C-1591.62333235 991.80883671 -1588.62950072 997.02993226 -1585.76153788 1002.35949808 C-1580.31837903 1012.39753128 -1574.44571034 1022.17380694 -1568.54693827 1031.94787699 C-1565.48035819 1037.04535325 -1562.54100431 1042.18158338 -1559.74591288 1047.43371683 C-1557.84030562 1050.88981819 -1555.80258755 1054.25796114 -1553.75763163 1057.63293558 C-1550.62334594 1062.80884396 -1547.62950084 1068.02993204 -1544.76153788 1073.35949808 C-1539.31837903 1083.39753128 -1533.44571034 1093.17380694 -1527.54693827 1102.94787699 C-1524.48035819 1108.04535325 -1521.54100431 1113.18158338 -1518.74591288 1118.43371683 C-1516.84030562 1121.88981819 -1514.80258755 1125.25796114 -1512.75763163 1128.63293558 C-1509.62334594 1133.80884396 -1506.62950084 1139.02993204 -1503.76153788 1144.35949808 C-1498.31837903 1154.39753128 -1492.44571034 1164.17380694 -1486.54693827 1173.94787699 C-1483.48035819 1179.04535325 -1480.54100431 1184.18158338 -1477.74591288 1189.43371683 C-1475.84030562 1192.88981819 -1473.80258755 1196.25796114 -1471.75763163 1199.63293558 C-1468.62334594 1204.80884396 -1465.62950084 1210.02993204 -1462.76153788 1215.35949808 C-1457.31837903 1225.39753128 -1451.44571034 1235.17380694 -1445.54693827 1244.94787699 C-1442.48035819 1250.04535325 -1439.54100431 1255.18158338 -1436.74591288 1260.43371683 C-1434.47305328 1264.55588476 -1432.01256055 1268.56208297 -1429.57330546 1272.58728129 C-1426.86325201 1277.07664546 -1424.32785945 1281.63517698 -1421.85138163 1286.25793558 C-1419.90472277 1289.76955549 -1417.83814517 1293.19946584 -1415.75763163 1296.63293558 C-1412.62333235 1301.80883671 -1409.62950072 1307.02993226 -1406.76153788 1312.35949808 C-1401.31837903 1322.39753128 -1395.44571034 1332.17380694 -1389.54693827 1341.94787699 C-1386.48035819 1347.04535325 -1383.54100431 1352.18158338 -1380.74591288 1357.43371683 C-1378.47305328 1361.55588476 -1376.01256055 1365.56208297 -1373.57330546 1369.58728129 C-1370.86325201 1374.07664546 -1368.32785945 1378.63517698 -1365.85138163 1383.25793558 C-1363.90472277 1386.76955549 -1361.83814517 1390.19946584 -1359.75763163 1393.63293558 C-1356.62333235 1398.80883671 -1353.62950072 1404.02993226 -1350.76153788 1409.35949808 C-1345.31837903 1419.39753128 -1339.44571034 1429.17380694 -1333.54693827 1438.94787699 C-1330.48035819 1444.04535325 -1327.54100431 1449.18158338 -1324.74591288 1454.43371683 C-1322.84030562 1457.88981819 -1320.80258755 1461.25796114 -1318.75763163 1464.63293558 C-1315.62334594 1469.80884396 -1312.62950084 1475.02993204 -1309.76153788 1480.35949808 C-1304.31837903 1490.39753128 -1298.44571034 1500.17380694 -1292.54693827 1509.94787699 C-1289.48035819 1515.04535325 -1286.54100431 1520.18158338 -1283.74591288 1525.43371683 C-1281.47305328 1529.55588476 -1279.01256055 1533.56208297 -1276.57330546 1537.58728129 C-1273.86325201 1542.07664546 -1271.32785945 1546.63517698 -1268.85138163 1551.25793558 C-1266.90472277 1554.76955549 -1264.83814517 1558.19946584 -1262.75763163 1561.63293558 C-1259.62333235 1566.80883671 -1256.62950072 1572.02993226 -1253.76153788 1577.35949808 C-1248.31837903 1587.39753128 -1242.44571034 1597.17380694 -1236.54693827 1606.94787699 C-1233.48035819 1612.04535325 -1230.54100431 1617.18158338 -1227.74591288 1622.43371683 C-1225.47305328 1626.55588476 -1223.01256055 1630.56208297 -1220.57330546 1634.58728129 C-1217.86325201 1639.07664546 -1215.32785945 1643.63517698 -1212.85138163 1648.25793558 C-1210.90472277 1651.76955549 -1208.83814517 1655.19946584 -1206.75763163 1658.63293558 C-1203.62333235 1663.80883671 -1200.62950072 1669.02993226 -1197.76153788 1674.35949808 C-1192.31837903 1684.39753128 -1186.44571034 1694.17380694 -1180.54693827 1703.94787699 C-1177.48035819 1709.04535325 -1174.54100431 1714.18158338 -1171.74591288 1719.43371683 C-1169.47305328 1723.55588476 -1167.01256055 1727.56208297 -1164.57330546 1731.58728129 C-1161.86325201 1736.07664546 -1159.32785945 1740.63517698 -1156.85138163 1745.25793558 C-1154.90472277 1748.76955549 -1152.83814517 1752.19946584 -1150.75763163 1755.63293558 C-1147.62333235 1760.80883671 -1144.62950072 1766.02993226 -1141.76153788 1771.35949808 C-1136.31837903 1781.39753128 -1130.44571034 1791.17380694 -1124.54693827 1800.94787699 C-1121.48035819 1806.04535325 -1118.54100431 1811.18158338 -1115.74591288 1816.43371683 C-1113.47305328 1820.55588476 -1111.01256055 1824.56208297 -1108.57330546 1828.58728129 C-1105.86716787 1833.07015861 -1103.33428787 1837.62136776 -1100.86310038 1842.23840433 C-1098.49616411 1846.50580037 -1095.96230894 1850.66989704 -1093.41583475 1854.83215433 C-1087.25763163 1864.95463284 -1087.25763163 1864.95463284 -1087.25763163 1868.13293558 C-1085.93763163 1868.13293558 -1084.61763163 1868.13293558 -1083.25763163 1868.13293558 C-1082.98177225 1867.40977152 -1082.70591288 1866.68660746 -1082.42169413 1865.94152933 C-1076.70603863 1852.15107193 -1067.90069836 1839.22670231 -1060.40436015 1826.32043558 C-1057.38877226 1821.11829819 -1054.43241116 1815.88654238 -1051.50763163 1810.63293558 C-1048.47532429 1805.19171742 -1045.25852805 1799.92273466 -1041.86700663 1794.69543558 C-1039.69156446 1791.23162474 -1037.76733376 1787.65482061 -1035.83575663 1784.05090433 C-1030.58894611 1774.34949973 -1024.94343427 1764.8569274 -1019.40436015 1755.32043558 C-1016.38877226 1750.11829819 -1013.43241116 1744.88654238 -1010.50763163 1739.63293558 C-1007.47532429 1734.19171742 -1004.25852805 1728.92273466 -1000.86700663 1723.69543558 C-998.69156446 1720.23162474 -996.76733376 1716.65482061 -994.83575663 1713.05090433 C-989.58894611 1703.34949973 -983.94343427 1693.8569274 -978.40436015 1684.32043558 C-975.38877226 1679.11829819 -972.43241116 1673.88654238 -969.50763163 1668.63293558 C-966.47532429 1663.19171742 -963.25852805 1657.92273466 -959.86700663 1652.69543558 C-957.69156446 1649.23162474 -955.76733376 1645.65482061 -953.83575663 1642.05090433 C-948.58894611 1632.34949973 -942.94343427 1622.8569274 -937.40436015 1613.32043558 C-934.38877226 1608.11829819 -931.43241116 1602.88654238 -928.50763163 1597.63293558 C-925.47532429 1592.19171742 -922.25852805 1586.92273466 -918.86700663 1581.69543558 C-916.69401757 1578.23553067 -914.77141759 1574.6633136 -912.84356913 1571.06262308 C-910.77015833 1567.23243072 -908.60275799 1563.45886861 -906.43194804 1559.68322855 C-904.59840377 1556.48989946 -902.78159732 1553.28863969 -900.99200663 1550.07043558 C-897.13581697 1543.14044778 -893.1857788 1536.35189177 -888.86700663 1529.69543558 C-886.69156446 1526.23162474 -884.76733376 1522.65482061 -882.83575663 1519.05090433 C-877.58894611 1509.34949973 -871.94343427 1499.8569274 -866.40436015 1490.32043558 C-863.38877226 1485.11829819 -860.43241116 1479.88654238 -857.50763163 1474.63293558 C-854.47532429 1469.19171742 -851.25852805 1463.92273466 -847.86700663 1458.69543558 C-845.69156446 1455.23162474 -843.76733376 1451.65482061 -841.83575663 1448.05090433 C-836.58894611 1438.34949973 -830.94343427 1428.8569274 -825.40436015 1419.32043558 C-822.38877226 1414.11829819 -819.43241116 1408.88654238 -816.50763163 1403.63293558 C-813.47532429 1398.19171742 -810.25852805 1392.92273466 -806.86700663 1387.69543558 C-804.69401757 1384.23553067 -802.77141759 1380.6633136 -800.84356913 1377.06262308 C-798.77015833 1373.23243072 -796.60275799 1369.45886861 -794.43194804 1365.68322855 C-792.59840377 1362.48989946 -790.78159732 1359.28863969 -788.99200663 1356.07043558 C-785.13581697 1349.14044778 -781.1857788 1342.35189177 -776.86700663 1335.69543558 C-774.69156446 1332.23162474 -772.76733376 1328.65482061 -770.83575663 1325.05090433 C-765.58894611 1315.34949973 -759.94343427 1305.8569274 -754.40436015 1296.32043558 C-751.38877226 1291.11829819 -748.43241116 1285.88654238 -745.50763163 1280.63293558 C-742.47532429 1275.19171742 -739.25852805 1269.92273466 -735.86700663 1264.69543558 C-733.69156446 1261.23162474 -731.76733376 1257.65482061 -729.83575663 1254.05090433 C-724.58894611 1244.34949973 -718.94343427 1234.8569274 -713.40436015 1225.32043558 C-710.38877226 1220.11829819 -707.43241116 1214.88654238 -704.50763163 1209.63293558 C-701.47532429 1204.19171742 -698.25852805 1198.92273466 -694.86700663 1193.69543558 C-692.69156446 1190.23162474 -690.76733376 1186.65482061 -688.83575663 1183.05090433 C-683.58934644 1173.35023995 -677.94250103 1163.85994504 -672.40655741 1154.32263285 C-668.99246847 1148.43004094 -665.64435056 1142.50296555 -662.32037577 1136.55920511 C-659.90986848 1132.26020429 -657.41048336 1128.02667817 -654.84747538 1123.81652933 C-652.77169546 1120.31269442 -650.800565 1116.75377521 -648.82013163 1113.19543558 C-645.68316027 1107.56539406 -642.37599947 1102.10379153 -638.86700663 1096.69543558 C-636.69401757 1093.23553067 -634.77141759 1089.6633136 -632.84356913 1086.06262308 C-630.77015833 1082.23243072 -628.60275799 1078.45886861 -626.43194804 1074.68322855 C-624.59840377 1071.48989946 -622.78159732 1068.28863969 -620.99200663 1065.07043558 C-617.13581697 1058.14044778 -613.1857788 1051.35189177 -608.86700663 1044.69543558 C-606.69156446 1041.23162474 -604.76733376 1037.65482061 -602.83575663 1034.05090433 C-597.58894611 1024.34949973 -591.94343427 1014.8569274 -586.40436015 1005.32043558 C-583.38877226 1000.11829819 -580.43241116 994.88654238 -577.50763163 989.63293558 C-574.47532429 984.19171742 -571.25852805 978.92273466 -567.86700663 973.69543558 C-565.69156446 970.23162474 -563.76733376 966.65482061 -561.83575663 963.05090433 C-556.58894611 953.34949973 -550.94343427 943.8569274 -545.40436015 934.32043558 C-542.38877226 929.11829819 -539.43241116 923.88654238 -536.50763163 918.63293558 C-533.47532429 913.19171742 -530.25852805 907.92273466 -526.86700663 902.69543558 C-524.69156446 899.23162474 -522.76733376 895.65482061 -520.83575663 892.05090433 C-515.58894611 882.34949973 -509.94343427 872.8569274 -504.40436015 863.32043558 C-501.38877226 858.11829819 -498.43241116 852.88654238 -495.50763163 847.63293558 C-492.47532429 842.19171742 -489.25852805 836.92273466 -485.86700663 831.69543558 C-483.69156446 828.23162474 -481.76733376 824.65482061 -479.83575663 821.05090433 C-474.58894611 811.34949973 -468.94343427 801.8569274 -463.40436015 792.32043558 C-460.38877226 787.11829819 -457.43241116 781.88654238 -454.50763163 776.63293558 C-451.47532429 771.19171742 -448.25852805 765.92273466 -444.86700663 760.69543558 C-442.69156446 757.23162474 -440.76733376 753.65482061 -438.83575663 750.05090433 C-433.58894611 740.34949973 -427.94343427 730.8569274 -422.40436015 721.32043558 C-419.38877226 716.11829819 -416.43241116 710.88654238 -413.50763163 705.63293558 C-410.47532429 700.19171742 -407.25852805 694.92273466 -403.86700663 689.69543558 C-401.69401757 686.23553067 -399.77141759 682.6633136 -397.84356913 679.06262308 C-395.77015833 675.23243072 -393.60275799 671.45886861 -391.43194804 667.68322855 C-389.59840377 664.48989946 -387.78159732 661.28863969 -385.99200663 658.07043558 C-382.13581697 651.14044778 -378.1857788 644.35189177 -373.86700663 637.69543558 C-371.69156446 634.23162474 -369.76733376 630.65482061 -367.83575663 627.05090433 C-362.58894611 617.34949973 -356.94343427 607.8569274 -351.40436015 598.32043558 C-348.38877226 593.11829819 -345.43241116 587.88654238 -342.50763163 582.63293558 C-339.47532429 577.19171742 -336.25852805 571.92273466 -332.86700663 566.69543558 C-330.69156446 563.23162474 -328.76733376 559.65482061 -326.83575663 556.05090433 C-321.58894611 546.34949973 -315.94343427 536.8569274 -310.40436015 527.32043558 C-307.38877226 522.11829819 -304.43241116 516.88654238 -301.50763163 511.63293558 C-298.47532429 506.19171742 -295.25852805 500.92273466 -291.86700663 495.69543558 C-289.69401757 492.23553067 -287.77141759 488.6633136 -285.84356913 485.06262308 C-283.77015833 481.23243072 -281.60275799 477.45886861 -279.43194804 473.68322855 C-277.59840377 470.48989946 -275.78159732 467.28863969 -273.99200663 464.07043558 C-270.13581697 457.14044778 -266.1857788 450.35189177 -261.86700663 443.69543558 C-259.69156446 440.23162474 -257.76733376 436.65482061 -255.83575663 433.05090433 C-250.58894611 423.34949973 -244.94343427 413.8569274 -239.40436015 404.32043558 C-236.38877226 399.11829819 -233.43241116 393.88654238 -230.50763163 388.63293558 C-227.47532429 383.19171742 -224.25852805 377.92273466 -220.86700663 372.69543558 C-218.69156446 369.23162474 -216.76733376 365.65482061 -214.83575663 362.05090433 C-209.58894611 352.34949973 -203.94343427 342.8569274 -198.40436015 333.32043558 C-195.38877226 328.11829819 -192.43241116 322.88654238 -189.50763163 317.63293558 C-186.47532429 312.19171742 -183.25852805 306.92273466 -179.86700663 301.69543558 C-177.69401757 298.23553067 -175.77141759 294.6633136 -173.84356913 291.06262308 C-171.77015833 287.23243072 -169.60275799 283.45886861 -167.43194804 279.68322855 C-165.59840377 276.48989946 -163.78159732 273.28863969 -161.99200663 270.07043558 C-158.13581697 263.14044778 -154.1857788 256.35189177 -149.86700663 249.69543558 C-147.69156446 246.23162474 -145.76733376 242.65482061 -143.83575663 239.05090433 C-138.58894611 229.34949973 -132.94343427 219.8569274 -127.40436015 210.32043558 C-124.38877226 205.11829819 -121.43241116 199.88654238 -118.50763163 194.63293558 C-115.47532429 189.19171742 -112.25852805 183.92273466 -108.86700663 178.69543558 C-106.69156446 175.23162474 -104.76733376 171.65482061 -102.83575663 168.05090433 C-97.58894611 158.34949973 -91.94343427 148.8569274 -86.40436015 139.32043558 C-83.38877226 134.11829819 -80.43241116 128.88654238 -77.50763163 123.63293558 C-74.47532429 118.19171742 -71.25852805 112.92273466 -67.86700663 107.69543558 C-65.69156446 104.23162474 -63.76733376 100.65482061 -61.83575663 97.05090433 C-56.58934644 87.35023995 -50.94250103 77.85994504 -45.40655741 68.32263285 C-41.99246847 62.43004094 -38.64435056 56.50296555 -35.32037577 50.55920511 C-32.90986848 46.26020429 -30.41048336 42.02667817 -27.84747538 37.81652933 C-25.77169393 34.31269186 -23.80063734 30.75373729 -21.82013163 27.19543558 C-18.64488898 21.49916607 -15.31735743 15.95044883 -11.76153788 10.48059183 C-10.39965155 8.35463421 -9.12204039 6.20688662 -7.88263163 4.00793558 C-5.4811025 -0.24092365 -4.8115244 0.01757284 0 0 Z " fill="#000000" transform="translate(3365.2576316297054,1086.8670644164085)"/>
</svg>
